<svg width="646" height="312" viewBox="0 0 646 312" fill="none" xmlns="http://www.w3.org/2000/svg">
<g clip-path="url(#clip0_6_41)">
<path d="M514.6 204.2L510.1 202.7L512.9 195.9H519.6L514.6 204.2Z" fill="#262726"/>
<path d="M174.3 165.3C166.9 158.1 157.1 154 147.4 154H147.3C132.2 154 124.1 161 117.7 166.6C112.3 171.3 108.8 174.4 101 174.4C99.1 174.4 97.2 174.1 95.4 173.6C89.2 171.5 84.6 166.4 83.1 160.1C83 159.8 83 159.6 82.9 159.3C82.8 159 82.8 158.7 82.8 158.4C82.8 158.1 82.7 157.8 82.7 157.5C82.6 156.9 82.6 156.3 82.6 155.8C82.6 153.4 83.1 150.9 84 148.7C84.2 148.2 84.4 147.7 84.7 147.2C84.9 146.8 85.1 146.5 85.3 146.2C85.6 145.7 85.9 145.3 86.2 144.8C90.9 138.2 99.3 135.4 107 137.8C111.9 138.8 116.8 135.9 118.3 131.1C119.8 126.3 117.4 121.1 112.7 119.1C109.1 117.9 105.4 117.3 101.6 117.3C98.1 117.3 94.5 117.7 91.1 118.5C82.5 120.7 74.8 126.6 69.7 134.2C69.6 134.3 69.6 134.4 69.5 134.5C68.8 135.5 68.2 136.5 67.6 137.6L67.5 137.8C66.9 138.8 66.4 139.9 66 141C66 141 66 141.1 65.9 141.1C63.9 145.6 62.9 150.4 62.9 155.3C62.9 156.8 63 158.3 63.1 159.8C63.1 160.2 63.2 160.6 63.3 161C63.4 161.9 63.5 162.8 63.7 163.7V163.9C66.5 178 76.4 188.8 89.8 192.7C93.5 193.9 97.4 194.5 101.3 194.5C113.5 194.5 124.6 187 130.6 181.7C136 177 139.5 173.9 147.3 173.9C152 173.9 156.8 176 160.6 179.7C164.4 183.3 166.6 188.2 166.7 193.5C166.7 211.1 140.4 237.8 100.9 237.8H101C56.7 237.7 20.2 201.5 19.7 157C19.4 135.1 27.9 114 43.3 98.4C58.7 82.8 79.6 74 101.4 74H101.5C123.2 74 143.9 82.6 159.2 98C163.1 101.5 169 101.3 172.7 97.6C176.4 93.9 176.6 88 173.1 84.1C154.1 64.7 128.3 54 101.4 54H101.2C74.1 54 48.2 64.9 29.1 84.2C10 103.5 -0.299975 129.7 2.53785e-05 156.8C0.700025 212 45.9 256.9 100.9 257H101.1C149.9 257 186.4 223.3 186.5 193.2C186.4 182.6 182 172.5 174.3 165.3Z" fill="#24C347"/>
<path d="M227.8 222.5C227.8 220.5 228.1 218.5 228.8 216.6C229.4 214.8 230.4 213.1 231.7 211.7C233 210.3 234.6 209.1 236.4 208.3C238.3 207.4 240.4 207 242.5 207.1C245.3 207 248 207.8 250.3 209.2C252.4 210.5 254.1 212.5 255.1 214.7L248.1 217C246.4 213.9 242.6 212.7 239.5 214.2C238.6 214.6 237.8 215.3 237.2 216C236.5 216.8 236 217.8 235.6 218.8C235.2 220 235 221.2 235 222.4C235 223.6 235.2 224.9 235.6 226C236 227 236.5 228 237.2 228.8C237.8 229.6 238.6 230.2 239.5 230.6C240.4 231 241.4 231.3 242.3 231.3C243.6 231.3 244.8 230.9 245.9 230.3C246.9 229.7 247.7 228.8 248.2 227.8L255.2 230.1C254.2 232.4 252.6 234.3 250.4 235.7C248 237.2 245.2 237.9 242.4 237.9C240.3 237.9 238.2 237.5 236.3 236.7C234.5 235.9 233 234.8 231.7 233.3C230.4 231.9 229.4 230.2 228.7 228.4C228.1 226.5 227.8 224.5 227.8 222.5Z" fill="#262726"/>
<path d="M272.6 238C270.5 238 268.4 237.6 266.5 236.8C264.7 236 263.2 234.9 261.9 233.4C260.6 232 259.6 230.3 259 228.5C258.3 226.6 258 224.6 258 222.6C258 220.6 258.3 218.6 259 216.7C259.6 214.9 260.6 213.2 261.9 211.8C263.2 210.4 264.8 209.2 266.5 208.4C268.4 207.5 270.5 207.1 272.6 207.2C274.7 207.2 276.8 207.6 278.7 208.4C280.4 209.2 282 210.3 283.3 211.8C284.6 213.2 285.6 214.9 286.2 216.7C286.9 218.6 287.2 220.6 287.2 222.6C287.2 224.6 286.9 226.6 286.2 228.5C285.6 230.3 284.6 232 283.3 233.4C282 234.8 280.5 236 278.7 236.8C276.8 237.6 274.7 238 272.6 238ZM265.3 222.5C265.3 223.7 265.5 224.9 265.9 226.1C266.2 227.1 266.8 228.1 267.5 228.9C268.1 229.7 268.9 230.3 269.8 230.7C271.6 231.6 273.7 231.6 275.6 230.7C276.5 230.3 277.3 229.6 277.9 228.9C278.6 228.1 279.1 227.1 279.4 226.1C279.8 224.9 280 223.7 280 222.5C280 221.3 279.8 220.1 279.4 218.9C279.1 217.9 278.5 216.9 277.9 216.1C277.3 215.3 276.5 214.7 275.6 214.3C274.7 213.9 273.7 213.6 272.7 213.6C271.7 213.6 270.7 213.8 269.8 214.3C268.9 214.8 268.1 215.4 267.5 216.2C266.8 217 266.3 218 265.9 219C265.5 220.1 265.3 221.3 265.3 222.5Z" fill="#262726"/>
<path d="M318.1 237.4H310.9V220.7C310.9 218.3 310.5 216.6 309.7 215.5C309 214.4 307.7 213.8 306.4 213.9C305.6 213.9 304.9 214.1 304.2 214.4C303.4 214.7 302.7 215.1 302.1 215.7C301.4 216.3 300.8 216.9 300.3 217.7C299.8 218.5 299.4 219.3 299.1 220.2V237.6H291.9V207.8H298.4V213.3C299.4 211.4 301 209.9 302.9 208.9C304.9 207.8 307.2 207.3 309.5 207.3C311 207.2 312.5 207.6 313.8 208.3C314.9 208.9 315.8 209.9 316.4 211C317 212.2 317.5 213.4 317.7 214.8C317.9 216.2 318 217.6 318 219.1V237.4H318.1Z" fill="#262726"/>
<path d="M326.6 237.4V214.5H322.4V207.6H326.6V198H334V207.6H340.5V214.5H334V237.4H326.6Z" fill="#262726"/>
<path d="M361.3 214.2C359.3 214.2 357.3 214.7 355.5 215.5C353.9 216.3 352.5 217.7 351.8 219.3V237.3H344.6V207.5H351.2V213.9C351.7 212.9 352.3 212 353 211.1C353.7 210.3 354.4 209.6 355.2 209C355.9 208.4 356.7 208 357.6 207.6C358.3 207.3 359.1 207.1 359.9 207.1H360.8C361 207.1 361.2 207.1 361.4 207.2L361.3 214.2Z" fill="#262726"/>
<path d="M376.8 238C375 238 373.1 237.6 371.5 236.8C369.9 236 368.5 234.9 367.3 233.5C366.1 232 365.2 230.4 364.5 228.6C363.8 226.7 363.5 224.6 363.5 222.5C363.5 220.4 363.8 218.4 364.5 216.5C365.1 214.7 366 213.1 367.1 211.6C368.2 210.2 369.5 209.1 371.1 208.3C372.6 207.5 374.3 207.1 376.1 207.1C378.1 207.1 380 207.6 381.7 208.7C383.3 209.7 384.7 211.2 385.5 212.9V208H392.7V237.4H385.6V232.6C384.8 234.2 383.5 235.6 382 236.6C380.5 237.5 378.7 238 376.8 238ZM385.6 219.4C385 217.8 384 216.3 382.7 215.2C381.5 214.2 380 213.6 378.4 213.6C377.4 213.6 376.3 213.9 375.4 214.4C374.5 214.9 373.7 215.6 373 216.4C372.3 217.3 371.8 218.3 371.5 219.3C371.1 220.4 371 221.5 371 222.7C371 223.9 371.2 225 371.6 226.1C371.9 227.1 372.5 228.1 373.2 228.9C373.9 229.7 374.7 230.3 375.6 230.8C376.6 231.3 377.6 231.5 378.7 231.5C380.2 231.5 381.7 231.1 382.8 230.1C384 229.1 385 227.9 385.6 226.5V219.4Z" fill="#262726"/>
<path d="M425 238C422.9 238 420.8 237.6 418.9 236.8C417.1 236 415.6 234.9 414.3 233.5C413 232.1 412 230.4 411.3 228.6C410.6 226.7 410.2 224.7 410.3 222.7C410.3 220.7 410.6 218.6 411.3 216.7C412 214.9 413 213.2 414.2 211.8C415.5 210.4 417.1 209.2 418.9 208.4C420.8 207.5 422.9 207.1 425.1 207.2C427.2 207.2 429.3 207.6 431.2 208.4C432.9 209.2 434.5 210.3 435.8 211.8C437.1 213.2 438.1 214.9 438.7 216.7C439.4 218.6 439.7 220.5 439.7 222.5C439.7 223 439.7 223.5 439.7 223.9C439.7 224.3 439.6 224.7 439.6 225H417.9C418 226.1 418.3 227.1 418.7 228.1C419.1 229 419.7 229.8 420.4 230.4C421.7 231.7 423.5 232.4 425.4 232.4C426.8 232.4 428.2 232 429.4 231.3C430.6 230.7 431.5 229.6 432 228.4L438.1 230.2C437 232.5 435.3 234.5 433.2 235.8C430.7 237.3 427.9 238 425 238ZM432.3 220C432.2 218 431.4 216.1 430 214.6C428 212.6 424.9 212 422.3 213.1C421.5 213.5 420.7 214 420.1 214.6C419.4 215.3 418.9 216.1 418.5 216.9C418.1 217.9 417.8 218.9 417.8 219.9H432.3V220Z" fill="#262726"/>
<path d="M444.1 195.9H451.3V237.4H444.1V195.9Z" fill="#262726"/>
<path d="M469.1 222.5C469.1 220.5 469.4 218.5 470.1 216.6C470.7 214.8 471.7 213.1 473 211.7C474.3 210.3 475.9 209.1 477.6 208.3C479.5 207.4 481.6 207 483.7 207.1C486.5 207 489.2 207.8 491.5 209.2C493.6 210.5 495.3 212.5 496.3 214.7L489.3 217C487.6 213.9 483.8 212.7 480.7 214.2C479.8 214.6 479 215.3 478.4 216C477.7 216.8 477.2 217.8 476.9 218.8C476.5 220 476.3 221.2 476.3 222.4C476.3 223.6 476.5 224.9 476.9 226C477.3 227 477.8 228 478.5 228.8C479.1 229.6 479.9 230.2 480.8 230.6C481.7 231 482.6 231.3 483.6 231.3C484.9 231.3 486.1 231 487.2 230.3C488.2 229.7 489 228.8 489.5 227.8L496.5 230.1C495.5 232.4 493.9 234.3 491.7 235.7C489.3 237.2 486.5 237.9 483.7 237.9C481.6 237.9 479.5 237.5 477.6 236.7C475.8 235.9 474.3 234.8 472.9 233.3C471.6 231.9 470.6 230.2 469.9 228.4C469.4 226.5 469 224.5 469.1 222.5Z" fill="#262726"/>
<path d="M512.5 238C510.7 238 508.8 237.6 507.2 236.8C505.6 236 504.2 234.9 503 233.5C501.8 232 500.9 230.4 500.2 228.6C499.5 226.7 499.2 224.6 499.2 222.5C499.2 220.4 499.5 218.4 500.2 216.5C500.8 214.7 501.7 213.1 502.8 211.6C503.9 210.2 505.2 209.1 506.8 208.3C508.3 207.5 510 207.1 511.8 207.1C513.8 207.1 515.7 207.6 517.4 208.7C519 209.7 520.4 211.2 521.2 212.9V208H528.4V237.4H521.2V232.6C520.4 234.2 519.1 235.6 517.6 236.6C516.1 237.5 514.3 238 512.5 238ZM521.3 219.4C520.7 217.8 519.7 216.3 518.4 215.2C517.2 214.2 515.7 213.6 514.1 213.6C513.1 213.6 512 213.9 511.1 214.4C510.2 214.9 509.4 215.6 508.7 216.4C508 217.3 507.5 218.3 507.2 219.3C506.8 220.4 506.7 221.5 506.7 222.7C506.7 223.9 506.9 225 507.3 226.1C507.6 227.1 508.2 228.1 508.9 228.9C509.6 229.7 510.4 230.3 511.3 230.8C512.3 231.3 513.3 231.5 514.4 231.5C515.9 231.5 517.4 231.1 518.5 230.1C519.7 229.1 520.7 227.9 521.3 226.5V219.4Z" fill="#262726"/>
<path d="M560.9 237.4H553.7V220.7C553.7 218.3 553.3 216.6 552.5 215.5C551.8 214.4 550.5 213.8 549.2 213.9C548.4 213.9 547.7 214.1 547 214.4C546.2 214.7 545.5 215.1 544.9 215.7C544.2 216.3 543.6 216.9 543.1 217.7C542.6 218.5 542.2 219.3 541.9 220.2V237.6H534.7V207.8H541.2V213.3C542.2 211.4 543.8 209.9 545.7 208.9C547.7 207.8 550 207.3 552.3 207.3C553.8 207.2 555.3 207.6 556.6 208.3C557.7 208.9 558.6 209.9 559.2 211C559.8 212.2 560.3 213.4 560.5 214.8C560.7 216.2 560.8 217.6 560.8 219.1V237.4H560.9Z" fill="#262726"/>
<path d="M565.4 222.5C565.4 220.5 565.7 218.5 566.4 216.6C567 214.8 568 213.1 569.3 211.7C570.6 210.3 572.2 209.1 574 208.3C575.9 207.4 578 207 580.1 207.1C582.9 207 585.6 207.8 587.9 209.2C590 210.5 591.7 212.5 592.7 214.7L585.7 217C584 214 580.3 212.8 577.1 214.3C576.2 214.7 575.4 215.4 574.8 216.1C574.1 216.9 573.6 217.9 573.2 218.9C572.8 220.1 572.6 221.3 572.6 222.5C572.6 223.7 572.8 225 573.2 226.1C573.6 227.1 574.1 228.1 574.8 228.9C575.4 229.7 576.2 230.3 577.1 230.8C578 231.2 579 231.5 579.9 231.5C581.2 231.5 582.4 231.2 583.5 230.5C584.5 229.9 585.3 229 585.8 228L592.8 230.3C591.8 232.6 590.2 234.5 588 235.9C585.6 237.4 582.8 238.1 580 238.1C577.9 238.1 575.8 237.7 573.9 236.9C572.1 236.1 570.6 235 569.3 233.5C568 232.1 567 230.4 566.3 228.6C565.7 226.5 565.4 224.5 565.4 222.5Z" fill="#262726"/>
<path d="M610.3 238C608.2 238 606.1 237.6 604.2 236.8C602.4 236 600.9 234.9 599.5 233.5C598.2 232.1 597.2 230.4 596.5 228.6C595.8 226.7 595.4 224.7 595.5 222.7C595.5 220.7 595.8 218.6 596.5 216.7C597.1 214.9 598.1 213.2 599.4 211.8C600.7 210.4 602.3 209.2 604.1 208.4C606 207.5 608.1 207.1 610.3 207.2C612.4 207.2 614.5 207.6 616.4 208.4C618.1 209.2 619.7 210.3 621 211.8C622.3 213.2 623.3 214.9 623.9 216.7C624.6 218.6 624.9 220.5 624.9 222.5C624.9 223 624.9 223.5 624.9 223.9C624.9 224.3 624.8 224.7 624.8 225H603.1C603.2 226.1 603.5 227.1 603.9 228.1C604.3 229 604.9 229.8 605.6 230.4C606.3 231 607 231.5 607.9 231.9C608.8 232.2 609.7 232.4 610.6 232.4C612 232.4 613.4 232 614.6 231.3C615.8 230.7 616.7 229.6 617.2 228.4L623.3 230.2C622.2 232.5 620.5 234.5 618.4 235.8C616 237.3 613.2 238 610.3 238ZM617.6 220C617.5 218 616.7 216.1 615.3 214.6C614 213.3 612.2 212.5 610.3 212.6C609.4 212.6 608.5 212.8 607.6 213.1C606.8 213.5 606 214 605.4 214.6C604.7 215.3 604.2 216.1 603.8 216.9C603.4 217.9 603.1 218.9 603.1 219.9H617.6V220Z" fill="#262726"/>
<path d="M646 214.2C644 214.2 642 214.7 640.2 215.5C638.6 216.3 637.2 217.7 636.5 219.3V237.3H629.3V207.5H635.9V213.9C636.8 212 638.2 210.3 639.9 209C640.6 208.4 641.4 208 642.3 207.6C643 207.3 643.8 207.1 644.6 207.1H645.5C645.7 207.1 645.9 207.1 646.1 207.2V214.2H646Z" fill="#262726"/>
<path d="M242.5 176.8C240.4 176.8 238.3 176.4 236.4 175.6C234.6 174.8 233.1 173.7 231.8 172.3C230.5 170.9 229.5 169.2 228.8 167.4C228.1 165.5 227.7 163.5 227.8 161.5C227.8 159.5 228.1 157.4 228.8 155.5C229.4 153.7 230.4 152 231.7 150.6C233 149.2 234.6 148 236.4 147.2C238.3 146.3 240.5 145.9 242.6 146C244.7 146 246.8 146.4 248.7 147.2C250.4 148 252 149.1 253.3 150.6C254.6 152 255.6 153.7 256.2 155.5C256.9 157.4 257.2 159.3 257.2 161.3C257.2 161.8 257.2 162.3 257.2 162.7C257.2 163.1 257.1 163.5 257.1 163.8H235.4C235.5 164.9 235.8 165.9 236.2 166.9C236.6 167.8 237.1 168.6 237.8 169.3C238.5 169.9 239.2 170.4 240.1 170.8C241 171.1 241.9 171.3 242.8 171.3C244.2 171.3 245.6 170.9 246.8 170.2C248 169.6 248.9 168.5 249.4 167.3L255.5 169.1C254.4 171.4 252.7 173.4 250.6 174.7C248.2 176.2 245.4 176.9 242.5 176.8ZM249.8 158.9C249.7 156.9 248.9 155 247.5 153.5C246.2 152.2 244.4 151.5 242.5 151.5C241.6 151.5 240.7 151.7 239.8 152C239 152.4 238.2 152.9 237.6 153.5C236.9 154.2 236.4 155 236 155.8C235.6 156.8 235.4 157.8 235.3 158.8H249.8V158.9Z" fill="#262726"/>
<path d="M272.1 176.8C269.8 176.8 267.4 176.4 265.2 175.6C263.1 174.9 261.1 173.7 259.4 172.2L262.1 167.4C263.6 168.6 265.3 169.6 267.1 170.3C268.6 170.9 270.3 171.3 271.9 171.3C273.1 171.4 274.3 171.1 275.3 170.4C276.1 169.9 276.6 168.9 276.5 168C276.5 167 276 166.1 275.1 165.7C273.6 165 272 164.4 270.4 164C268.6 163.5 267 163 265.8 162.5C264.7 162.1 263.6 161.5 262.7 160.8C262 160.2 261.4 159.5 261 158.6C260.6 157.7 260.4 156.7 260.5 155.7C260.5 154.3 260.8 152.9 261.3 151.6C261.8 150.4 262.6 149.4 263.6 148.5C264.6 147.6 265.8 147 267.1 146.5C268.5 146 270 145.8 271.5 145.8C273.5 145.8 275.5 146.1 277.4 146.8C279.3 147.5 281 148.5 282.5 149.9L279.6 154.5C278.4 153.5 277 152.6 275.5 152C274.2 151.5 272.9 151.2 271.5 151.2C270.4 151.2 269.4 151.4 268.5 152C267.7 152.6 267.2 153.5 267.3 154.6C267.3 155.1 267.4 155.5 267.6 155.9C267.8 156.3 268.2 156.6 268.5 156.8C269 157.1 269.6 157.4 270.1 157.5C270.8 157.7 271.7 158 272.7 158.3C274.6 158.8 276.3 159.4 277.6 159.9C278.8 160.3 279.9 161 281 161.7C281.8 162.3 282.5 163.1 282.9 164.1C283.3 165.1 283.5 166.2 283.5 167.3C283.6 170 282.5 172.5 280.5 174.2C278.4 176 275.6 176.8 272.1 176.8Z" fill="#262726"/>
<path d="M304.9 176.8C302.9 176.8 300.9 176.3 299.1 175.2C297.5 174.2 296.1 172.7 295.3 171V188.3H288.1V146.5H294.4V151.6C295.4 149.9 296.8 148.5 298.4 147.5C300.1 146.5 302.1 146 304.1 146C305.9 146 307.7 146.4 309.3 147.2C310.9 148 312.3 149.1 313.4 150.5C314.6 152 315.5 153.6 316.1 155.4C316.8 157.3 317.1 159.3 317.1 161.3C317.1 163.4 316.8 165.4 316.2 167.4C315.6 169.2 314.8 170.8 313.7 172.3C312.7 173.7 311.3 174.8 309.8 175.6C308.3 176.5 306.6 176.9 304.9 176.8ZM302.5 170.4C303.5 170.4 304.5 170.2 305.5 169.7C306.4 169.2 307.2 168.5 307.8 167.7C308.5 166.8 309 165.8 309.3 164.8C309.7 163.7 309.8 162.6 309.8 161.4C309.8 160.2 309.6 159 309.2 157.9C308.8 156.9 308.3 155.9 307.6 155.1C306.9 154.3 306.1 153.7 305.1 153.2C304.1 152.7 303.1 152.5 302 152.5C301.3 152.5 300.6 152.6 299.9 152.9C299.2 153.1 298.5 153.5 297.9 154C297.3 154.5 296.7 155 296.3 155.6C295.8 156.2 295.5 156.9 295.2 157.6V164.6C295.8 166.2 296.8 167.7 298.1 168.8C299.4 169.8 300.9 170.4 302.5 170.4Z" fill="#262726"/>
<path d="M333.5 176.8C331.7 176.8 329.8 176.4 328.2 175.6C326.6 174.8 325.2 173.7 324 172.3C322.8 170.8 321.9 169.2 321.2 167.4C320.5 165.5 320.2 163.4 320.2 161.4C320.2 159.3 320.5 157.3 321.2 155.3C321.8 153.5 322.7 151.9 323.8 150.4C324.9 149 326.2 147.9 327.8 147.1C329.3 146.3 331 145.9 332.8 145.9C334.8 145.9 336.7 146.4 338.4 147.5C340 148.5 341.4 150 342.2 151.7V146.8H349.4V176.2H342.3V171.4C341.5 173 340.2 174.4 338.7 175.4C337.2 176.4 335.4 176.9 333.5 176.8ZM342.3 158.3C341.7 156.7 340.7 155.2 339.4 154.1C338.2 153.1 336.7 152.5 335.1 152.5C334.1 152.5 333 152.8 332.1 153.3C331.2 153.8 330.4 154.5 329.7 155.3C329 156.2 328.5 157.2 328.2 158.2C327.8 159.3 327.7 160.4 327.7 161.6C327.7 162.8 327.9 163.9 328.3 165C328.6 166 329.2 167 329.9 167.8C330.6 168.6 331.4 169.2 332.3 169.7C333.3 170.2 334.3 170.4 335.4 170.4C336.9 170.4 338.4 170 339.5 169C340.7 168 341.7 166.8 342.3 165.4V158.3Z" fill="#262726"/>
<path d="M382 176.3H374.8V159.6C374.8 157.2 374.4 155.5 373.6 154.4C372.9 153.3 371.6 152.7 370.3 152.8C369.5 152.8 368.8 153 368.1 153.3C367.3 153.6 366.6 154 366 154.6C365.3 155.2 364.7 155.8 364.2 156.6C363.7 157.4 363.3 158.2 363 159.1V176.5H355.8V146.5H362.3V152C363.3 150.1 364.9 148.6 366.8 147.6C368.8 146.5 371.1 146 373.4 146C374.9 145.9 376.4 146.3 377.7 147C378.8 147.6 379.7 148.6 380.3 149.7C380.9 150.9 381.4 152.1 381.6 153.4C381.8 154.8 381.9 156.2 381.9 157.7L382 176.3ZM372.9 142.1C372.2 142.1 371.5 142 370.8 141.7C370.2 141.5 369.6 141.2 369.1 140.8C368.6 140.5 368.1 140.2 367.6 139.9C367.1 139.6 366.5 139.5 366 139.5C365.5 139.5 365 139.6 364.6 139.9C364.3 140.1 364 140.5 363.8 140.8C363.6 141.1 363.5 141.4 363.5 141.7C363.5 142 363.4 142.1 363.4 142.2H359.4C359.4 141.6 359.5 141 359.7 140.5C359.9 139.6 360.3 138.8 360.7 138.1C361.2 137.3 361.9 136.5 362.6 135.9C363.5 135.3 364.5 134.9 365.6 135C366.3 135 367 135.1 367.7 135.4C368.3 135.7 368.8 136 369.4 136.3C369.9 136.6 370.4 136.9 370.9 137.2C371.4 137.5 372 137.6 372.6 137.6C373.1 137.6 373.7 137.5 374.1 137.2C374.4 137 374.7 136.7 375 136.3C375.2 136 375.3 135.7 375.4 135.3C375.4 135.1 375.5 134.9 375.5 134.7H379.5C379.4 135.2 379.3 135.8 379.2 136.3C379 137.2 378.6 138 378.1 138.7C377.6 139.6 376.9 140.3 376.1 140.9C375.1 141.8 374 142.1 372.9 142.1Z" fill="#262726"/>
<path d="M401.1 176.8C399 176.8 396.9 176.4 395 175.6C393.2 174.8 391.7 173.7 390.4 172.2C389.1 170.8 388.1 169.1 387.5 167.3C386.1 163.5 386.1 159.3 387.5 155.5C388.1 153.7 389.1 152 390.4 150.6C391.7 149.2 393.3 148 395 147.2C396.9 146.3 399 145.9 401.1 146C403.2 146 405.3 146.4 407.2 147.2C408.9 148 410.5 149.1 411.8 150.6C413.1 152 414.1 153.7 414.7 155.5C416.1 159.3 416.1 163.5 414.7 167.3C414.1 169.1 413.1 170.8 411.8 172.2C410.5 173.6 409 174.8 407.2 175.6C405.3 176.5 403.2 176.9 401.1 176.8ZM393.8 161.5C393.8 162.7 394 163.9 394.4 165.1C394.7 166.1 395.3 167.1 395.9 167.9C396.5 168.7 397.3 169.3 398.2 169.7C400 170.6 402.1 170.6 404 169.7C404.9 169.3 405.7 168.6 406.3 167.9C407 167.1 407.5 166.1 407.8 165.1C408.2 163.9 408.4 162.7 408.4 161.5C408.4 160.3 408.2 159.1 407.8 157.9C407.5 156.9 406.9 155.9 406.3 155.1C405.7 154.3 404.9 153.7 404 153.2C403.1 152.8 402.1 152.5 401.1 152.5C400.1 152.5 399.1 152.7 398.2 153.2C397.3 153.7 396.5 154.3 395.9 155.1C395.2 155.9 394.7 156.9 394.4 157.9C394 159 393.8 160.2 393.8 161.5Z" fill="#262726"/>
<path d="M420.7 134.8H427.8V176.3H420.7V134.8Z" fill="#262726"/>
<path d="M446.1 176.8C444.3 176.8 442.4 176.4 440.8 175.6C439.2 174.8 437.8 173.7 436.6 172.3C435.4 170.8 434.5 169.2 433.8 167.4C433.1 165.5 432.8 163.4 432.8 161.4C432.8 159.3 433.1 157.3 433.8 155.3C434.4 153.5 435.3 151.9 436.4 150.4C437.5 149 438.8 147.9 440.4 147.1C441.9 146.3 443.6 145.9 445.4 145.9C447.4 145.9 449.3 146.4 451 147.5C452.6 148.5 454 150 454.8 151.7V146.8H462V176.2H454.9V171.4C454.1 173 452.8 174.4 451.3 175.4C449.7 176.4 447.9 176.9 446.1 176.8ZM454.8 158.3C454.2 156.7 453.2 155.2 451.9 154.1C450.7 153.1 449.2 152.5 447.6 152.5C446.6 152.5 445.5 152.8 444.6 153.3C443.7 153.8 442.9 154.5 442.2 155.3C441.5 156.2 441 157.2 440.7 158.2C440.3 159.3 440.2 160.4 440.2 161.6C440.2 162.8 440.4 163.9 440.8 165C441.1 166 441.7 167 442.4 167.8C443.1 168.6 443.9 169.2 444.8 169.7C445.8 170.2 446.8 170.4 447.9 170.4C449.4 170.4 450.9 170 452 169C453.2 168 454.2 166.8 454.8 165.4V158.3Z" fill="#262726"/>
<path d="M241.1 115.7C239.3 115.7 237.4 115.3 235.8 114.5C234.2 113.7 232.8 112.6 231.6 111.2C230.4 109.7 229.5 108.1 228.8 106.3C228.1 104.4 227.8 102.3 227.8 100.3C227.8 98.1999 228.1 96.1999 228.8 94.2999C229.4 92.4999 230.3 90.8999 231.4 89.3999C232.5 87.9999 233.8 86.8999 235.4 86.0999C236.9 85.2999 238.6 84.8999 240.4 84.8999C242.4 84.8999 244.3 85.3999 246 86.4999C247.6 87.4999 249 88.9999 249.8 90.6999V85.7999H257V115H249.9V110.2C249.1 111.8 247.8 113.2 246.3 114.2C244.7 115.2 242.9 115.7 241.1 115.7ZM249.8 97.0999C249.2 95.4999 248.2 93.9999 246.9 92.8999C245.7 91.8999 244.2 91.2999 242.6 91.2999C241.6 91.2999 240.5 91.5999 239.6 92.0999C238.7 92.5999 237.9 93.2999 237.2 94.0999C236.5 94.9999 236 95.9999 235.7 96.9999C235.3 98.0999 235.2 99.1999 235.2 100.4C235.2 101.6 235.4 102.7 235.8 103.8C236.1 104.8 236.7 105.8 237.4 106.6C238.1 107.4 238.9 108 239.8 108.5C240.8 109 241.8 109.2 242.9 109.2C244.4 109.2 245.9 108.7 247 107.8C248.2 106.8 249.2 105.6 249.8 104.2V97.0999Z" fill="#262726"/>
<path d="M274 115.7C271.7 115.7 269.3 115.3 267.1 114.5C265 113.8 263 112.6 261.3 111.1L264 106.3C265.5 107.5 267.2 108.5 269 109.2C270.5 109.8 272.2 110.2 273.8 110.2C275 110.3 276.2 110 277.2 109.4C278 108.9 278.5 107.9 278.4 107C278.4 106 277.9 105.1 277 104.7C275.5 104 273.9 103.4 272.3 103C270.5 102.5 268.9 102 267.7 101.5C266.6 101.1 265.5 100.5 264.6 99.7998C263.9 99.1998 263.3 98.4998 262.9 97.5998C262.5 96.6998 262.3 95.6998 262.4 94.6998C262.4 93.2998 262.7 91.8998 263.2 90.5998C263.7 89.3998 264.5 88.2998 265.5 87.4998C266.5 86.5998 267.7 85.9998 269 85.4998C270.4 84.9998 271.9 84.7998 273.4 84.7998C275.4 84.7998 277.4 85.0998 279.3 85.7998C281.2 86.4998 282.9 87.4998 284.4 88.8998L281.5 93.4998C280.2 92.4998 278.9 91.5998 277.4 90.9998C276.1 90.4998 274.8 90.1998 273.4 90.1998C272.3 90.1998 271.3 90.3998 270.3 90.9998C269.5 91.5998 269 92.4998 269.1 93.5998C269.1 94.0998 269.2 94.4998 269.4 94.8998C269.6 95.2998 269.9 95.5998 270.3 95.7998C270.8 96.0998 271.4 96.3998 272 96.5998C272.7 96.7998 273.6 97.0998 274.6 97.3998C276.5 97.8998 278.2 98.4998 279.5 98.9998C280.7 99.3998 281.8 100.1 282.9 100.8C283.7 101.4 284.4 102.2 284.8 103.2C285.2 104.2 285.4 105.3 285.4 106.4C285.5 109.1 284.4 111.6 282.4 113.3C280.3 114.8 277.5 115.7 274 115.7Z" fill="#262726"/>
<path d="M303 115.7C300.9 115.7 298.8 115.3 296.9 114.5C295.1 113.7 293.6 112.6 292.3 111.1C291 109.7 290 108 289.4 106.2C288.7 104.3 288.4 102.3 288.4 100.3C288.4 98.2998 288.7 96.2998 289.4 94.3998C290 92.5998 291 90.8998 292.3 89.4998C293.6 88.0998 295.2 86.8998 296.9 86.0998C298.8 85.1998 300.9 84.7998 303 84.8998C305.1 84.8998 307.2 85.2998 309.1 86.0998C310.8 86.8998 312.4 87.9998 313.7 89.4998C315 90.8998 316 92.5998 316.6 94.3998C317.3 96.2998 317.6 98.2998 317.6 100.3C317.6 102.3 317.3 104.3 316.6 106.2C316 108 315 109.7 313.7 111.1C312.4 112.5 310.9 113.7 309.1 114.5C307.2 115.3 305.1 115.7 303 115.7ZM295.6 100.3C295.6 101.5 295.8 102.7 296.2 103.9C296.5 104.9 297.1 105.9 297.8 106.7C298.4 107.5 299.2 108.1 300.1 108.6C301.9 109.5 304 109.5 305.9 108.6C306.8 108.2 307.6 107.5 308.2 106.8C308.9 106 309.4 105 309.7 104C310.1 102.8 310.3 101.6 310.3 100.4C310.3 99.1998 310.1 97.9998 309.7 96.7998C309.4 95.7998 308.8 94.7998 308.2 93.9998C307.6 93.1998 306.8 92.5998 305.9 92.1998C305 91.7998 304 91.4998 303 91.4998C302 91.4998 301 91.6998 300.1 92.1998C299.2 92.6998 298.4 93.2998 297.8 94.0998C297.1 94.8998 296.6 95.8998 296.2 96.8998C295.8 97.8998 295.6 99.0998 295.6 100.3Z" fill="#262726"/>
<path d="M320.6 100.2C320.6 98.1998 320.9 96.1998 321.6 94.2998C322.9 90.5998 325.6 87.6998 329.2 86.0998C331.1 85.1998 333.2 84.7998 335.3 84.8998C338.1 84.7998 340.8 85.5998 343.1 86.9998C345.2 88.2998 346.9 90.2998 347.9 92.4998L340.9 94.7998C339.2 91.6998 335.4 90.4998 332.3 91.9998C331.4 92.3998 330.6 93.0998 330 93.7998C329.3 94.5998 328.8 95.5998 328.4 96.5998C328 97.7998 327.8 98.9998 327.8 100.2C327.8 101.4 328 102.7 328.4 103.8C328.8 104.8 329.3 105.8 330 106.6C330.6 107.4 331.4 108 332.3 108.4C333.2 108.8 334.1 109.1 335.1 109.1C336.4 109.1 337.6 108.8 338.7 108.1C339.7 107.5 340.5 106.6 341 105.6L348 107.9C347 110.2 345.4 112.1 343.2 113.5C340.8 115 338 115.7 335.2 115.7C333.1 115.7 331 115.3 329.1 114.5C327.3 113.7 325.8 112.6 324.4 111.1C323.1 109.7 322.1 108 321.4 106.2C321 104.2 320.6 102.2 320.6 100.2Z" fill="#262726"/>
<path d="M352.6 81.2002V73.7002H359.7V81.2002H352.6ZM352.6 115.1V85.3002H359.7V115.1H352.6Z" fill="#262726"/>
<path d="M377.7 115.7C375.9 115.7 374 115.3 372.4 114.5C370.8 113.7 369.4 112.6 368.2 111.2C367 109.7 366.1 108.1 365.4 106.3C364.7 104.4 364.4 102.3 364.4 100.3C364.4 98.1999 364.7 96.1999 365.4 94.2999C366 92.4999 366.9 90.8999 368 89.3999C369.1 87.9999 370.4 86.8999 372 86.0999C373.5 85.2999 375.2 84.8999 377 84.8999C379 84.8999 380.9 85.3999 382.6 86.4999C384.2 87.4999 385.6 88.9999 386.4 90.6999V85.7999H393.6V115H386.5V110.2C385.7 111.8 384.4 113.2 383 114.2C381.4 115.2 379.6 115.7 377.7 115.7ZM386.5 97.0999C385.9 95.4999 384.9 93.9999 383.6 92.8999C382.4 91.8999 380.9 91.2999 379.3 91.2999C378.3 91.2999 377.2 91.5999 376.3 92.0999C375.4 92.5999 374.6 93.2999 373.9 94.0999C373.2 94.9999 372.7 95.9999 372.4 96.9999C372 98.0999 371.9 99.1999 371.9 100.4C371.9 101.6 372.1 102.7 372.5 103.8C372.8 104.8 373.4 105.8 374.1 106.6C374.8 107.4 375.6 108 376.5 108.5C377.5 109 378.5 109.2 379.6 109.2C381.1 109.2 382.6 108.7 383.7 107.8C384.9 106.8 385.9 105.6 386.5 104.2V97.0999Z" fill="#262726"/>
<path d="M398.3 100.2C398.3 98.1998 398.6 96.1998 399.3 94.2998C399.9 92.4998 400.9 90.7998 402.2 89.3998C403.5 87.9998 405.1 86.8998 406.9 86.0998C408.8 85.1998 410.9 84.7998 413 84.8998C415.8 84.7998 418.5 85.5998 420.8 86.9998C422.9 88.2998 424.6 90.2998 425.6 92.4998L418.6 94.7998C416.9 91.6998 413.1 90.4998 410 91.9998C409.1 92.3998 408.3 93.0998 407.7 93.7998C407 94.5998 406.5 95.5998 406.1 96.5998C405.7 97.7998 405.5 98.9998 405.5 100.2C405.5 101.4 405.7 102.7 406.1 103.8C406.5 104.8 407 105.8 407.7 106.6C408.3 107.4 409.1 108 410 108.4C410.9 108.8 411.8 109.1 412.8 109.1C414.1 109.1 415.3 108.7 416.4 108.1C417.4 107.5 418.2 106.6 418.7 105.6L425.7 107.9C424.7 110.2 423.1 112.1 420.9 113.5C418.5 115 415.7 115.7 412.9 115.7C410.8 115.7 408.7 115.3 406.8 114.5C405 113.7 403.5 112.6 402.2 111.1C400.9 109.7 399.9 108 399.2 106.2C398.7 104.2 398.3 102.2 398.3 100.2Z" fill="#262726"/>
<path d="M429.2 81.2002V73.7002H436.4V81.2002H429.2ZM429.2 115.1V85.3002H436.4V115.1H429.2Z" fill="#262726"/>
<path d="M455.7 115.7C453.6 115.7 451.5 115.3 449.6 114.5C447.8 113.7 446.3 112.6 445 111.1C443.7 109.7 442.7 108 442.1 106.2C441.4 104.3 441.1 102.3 441.1 100.3C441.1 98.3001 441.4 96.3001 442.1 94.4001C442.7 92.6001 443.7 90.9001 445 89.5001C446.3 88.1001 447.9 86.9001 449.6 86.1001C451.5 85.2001 453.6 84.8001 455.7 84.9001C457.8 84.9001 459.9 85.3001 461.8 86.1001C463.5 86.9001 465.1 88.0001 466.4 89.5001C467.7 90.9001 468.7 92.6001 469.3 94.4001C470 96.3001 470.3 98.3001 470.3 100.3C470.3 102.3 470 104.3 469.3 106.2C468.7 108 467.7 109.7 466.4 111.1C465.1 112.5 463.6 113.7 461.8 114.5C460 115.3 457.9 115.7 455.7 115.7ZM448.5 100.3C448.5 101.5 448.7 102.7 449.1 103.9C449.4 104.9 450 105.9 450.6 106.7C451.2 107.5 452 108.1 452.9 108.5C454.7 109.4 456.8 109.4 458.7 108.5C459.6 108.1 460.4 107.4 461 106.7C461.7 105.9 462.2 104.9 462.6 103.9C463 102.7 463.2 101.5 463.2 100.3C463.2 99.1001 463 97.9001 462.6 96.7001C462.3 95.7001 461.7 94.7001 461 93.9001C460.4 93.1001 459.6 92.5001 458.7 92.1001C457.8 91.7001 456.8 91.4001 455.8 91.4001C454.8 91.4001 453.8 91.6001 452.9 92.1001C452 92.6001 451.2 93.2001 450.6 94.0001C449.9 94.8001 449.4 95.8001 449.1 96.8001C448.6 97.8001 448.4 99.0001 448.5 100.3ZM457.6 81.9001L453 80.4001L455.9 73.6001H462.6L457.6 81.9001Z" fill="#262726"/>
<path d="M501.2 115.1H494V98.3999C494 95.9999 493.6 94.2999 492.8 93.1999C492.1 92.0999 490.8 91.4999 489.5 91.5999C488.7 91.5999 488 91.7999 487.3 92.0999C486.5 92.3999 485.8 92.7999 485.2 93.3999C484.5 93.9999 483.9 94.5999 483.4 95.3999C482.9 96.1999 482.5 96.9999 482.2 97.8999V115.3H475V85.2999H481.5V90.7999C482.5 88.8999 484.1 87.3999 486 86.3999C488 85.2999 490.3 84.7999 492.6 84.7999C494.1 84.6999 495.6 85.0999 496.9 85.7999C498 86.3999 498.9 87.3999 499.5 88.4999C500.1 89.6999 500.6 90.8999 500.8 92.1999C501 93.5999 501.1 94.9999 501.1 96.4999V115.1H501.2Z" fill="#262726"/>
</g>
<defs>
<clipPath id="clip0_6_41">
<rect width="646" height="203" fill="white" transform="translate(0 54)"/>
</clipPath>
</defs>
</svg>
