<svg width="236" height="130" viewBox="0 0 236 130" fill="none" xmlns="http://www.w3.org/2000/svg">
<g clip-path="url(#clip0_13_27)">
<path d="M3.9 70.3H0V33H3.9V45.8C6.7 44.5 9.3 43.8 11.9 43.8C15.4 43.8 17.7 44.7 18.9 46.6C20.1 48.5 20.7 51.8 20.7 56.6V70.3H16.8V56.7C16.8 53.1 16.4 50.6 15.7 49.3C15 48 13.5 47.3 11.2 47.3C9 47.3 6.9 47.7 4.9 48.5L3.9 48.9V70.3Z" fill="#3A383B"/>
<path d="M45 67.0998L46.5 66.8998L46.6 69.9998C42.7 70.5998 39.3 70.7998 36.5 70.7998C32.8 70.7998 30.1 69.6998 28.6 67.5998C27 65.3998 26.3 62.0998 26.3 57.4998C26.3 48.3998 29.9001 43.7998 37.2001 43.7998C40.7001 43.7998 43.3 44.7998 45 46.6998C46.7 48.6998 47.6 51.6998 47.6 55.8998L47.4001 58.8998H30.1C30.1 61.7998 30.6001 63.8998 31.7001 65.2998C32.7001 66.6998 34.5 67.3998 37.1 67.3998C39.7 67.3998 42.3 67.2998 45 67.0998ZM43.6 55.7998C43.6 52.5998 43.1 50.3998 42.1 48.9998C41.1 47.6998 39.4 46.9998 37.1 46.9998C34.8 46.9998 33.1 47.6998 31.9 49.0998C30.7 50.4998 30.1 52.6998 30.1 55.6998H43.6V55.7998Z" fill="#3A383B"/>
<path d="M71.3 52.2V65.5C71.4 66.8 72.4 67.5 74.3 67.8L74.1 70.9C71.4 70.9 69.3 70.2 67.9 68.8C64.8 70.2 61.7 70.9 58.5 70.9C56.1 70.9 54.3 70.2 53 68.9C51.8 67.5 51.1 65.6 51.1 63.1C51.1 60.6 51.7 58.7 53 57.5C54.3 56.3 56.3 55.6 59 55.3L67.2 54.5V52.3C67.2 50.5 66.8 49.3 66.1 48.5C65.3 47.7 64.3 47.4 63 47.4C60.2 47.4 57.4 47.6 54.4 47.9L52.8 48.1L52.6 45.1C56.4 44.3 59.8 44 62.7 44C65.6 44 67.8 44.7 69.1 46C70.7 47.2 71.3 49.3 71.3 52.2ZM55.3 62.8C55.3 66 56.6 67.6 59.2 67.6C61.6 67.6 63.9 67.2 66.2 66.4L67.4 66V57.4L59.7 58.1C58.1 58.2 57 58.7 56.3 59.5C55.7 60.2 55.3 61.3 55.3 62.8Z" fill="#3A383B"/>
<path d="M78.8 70.3V33H82.7V70.3H78.8Z" fill="#3A383B"/>
<path d="M103.3 47.6999H95V60.0999C95 63.0999 95.2 64.9999 95.6 65.9999C96 66.8999 97.1 67.3999 98.7 67.3999L103.3 67.0999L103.6 70.2999C101.3 70.6999 99.5 70.8999 98.3 70.8999C95.6 70.8999 93.7 70.1999 92.7 68.8999C91.7 67.5999 91.1 65.0999 91.1 61.3999V47.6999H87.4V44.2999H91.1V36.3999H94.9V44.2999H103.2V47.6999H103.3Z" fill="#3A383B"/>
<path d="M111.4 70.3H107.5V33H111.4V45.8C114.2 44.5 116.8 43.8 119.4 43.8C122.9 43.8 125.2 44.7 126.4 46.6C127.6 48.5 128.2 51.8 128.2 56.6V70.3H124.3V56.7C124.3 53.1 123.9 50.6 123.2 49.3C122.5 48 121 47.3 118.7 47.3C116.5 47.3 114.4 47.7 112.4 48.5L111.4 48.9V70.3Z" fill="#3A383B"/>
<path d="M153 50.7999C148.7 50.1999 145.7 49.9999 144 49.9999C142.3 49.9999 141.2 50.1999 140.7 50.4999C140.2 50.7999 139.9 51.2999 139.9 51.9999C139.9 52.6999 140.2 53.0999 140.9 53.3999C141.6 53.6999 143.3 53.9999 146.1 54.4999C148.9 54.9999 150.9 55.7999 152 56.9999C153.2 58.0999 153.8 59.9999 153.8 62.5999C153.8 68.1999 150.3 70.9999 143.4 70.9999C141.1 70.9999 138.3 70.6999 135.1 70.0999L133.4 69.7999L133.6 63.9999C137.9 64.5999 140.9 64.7999 142.6 64.7999C144.3 64.7999 145.4 64.5999 146 64.2999C146.6 63.9999 146.9 63.4999 146.9 62.7999C146.9 62.0999 146.6 61.6999 145.9 61.2999C145.3 60.9999 143.6 60.5999 140.9 60.1999C138.2 59.7999 136.2 58.9999 134.9 57.8999C133.6 56.7999 132.9 54.8999 132.9 52.1999C132.9 49.3999 133.8 47.3999 135.7 45.9999C137.6 44.5999 140 43.8999 142.9 43.8999C144.9 43.8999 147.7 44.1999 151.3 44.8999L153 45.1999V50.7999Z" fill="#C62B17"/>
<path d="M172.7 50.2001H166.3V60.9001C166.3 61.9001 166.3 62.7001 166.4 63.1001C166.5 63.5001 166.6 63.9001 167 64.2001C167.3 64.5001 167.8 64.7001 168.5 64.7001L172.4 64.6001L172.7 70.2001C170.4 70.7001 168.6 71.0001 167.4 71.0001C164.3 71.0001 162.2 70.3001 161 68.9001C159.9 67.5001 159.3 64.9001 159.3 61.1001V50.2001H156.2V44.3001H159.3V37.1001H166.3V44.3001H172.7V50.2001Z" fill="#C62B17"/>
<path d="M196.5 52.4V63.2C196.6 64 196.7 64.6 196.9 64.9C197.1 65.2 197.5 65.5 198.2 65.6L198 70.8C196.2 70.8 194.8 70.7 193.8 70.4C192.7 70.2 191.7 69.7 190.6 68.9C188.1 70.1 185.6 70.7 183 70.7C177.6 70.7 174.9 67.9 174.9 62.2C174.9 59.4 175.6 57.5 177.1 56.3C178.6 55.1 180.9 54.5 184 54.2L189.6 53.8V52.2C189.6 51.1 189.4 50.4 188.9 50C188.4 49.6 187.6 49.4 186.6 49.4L176.8 49.8L176.6 45C180.3 44 183.8 43.5 187.2 43.5C190.5 43.5 192.9 44.2 194.4 45.6C195.8 47.2 196.5 49.4 196.5 52.4ZM184.8 59.3C182.9 59.5 181.9 60.5 181.9 62.4C181.9 64.3 182.7 65.3 184.4 65.3C185.7 65.3 187.2 65.1 188.7 64.7L189.5 64.5V58.9L184.8 59.3Z" fill="#C62B17"/>
<path d="M202.6 70.3002V44.3002H209.5V47.1002C212.4 45.4002 215.2 44.2002 217.8 43.7002V50.7002C215 51.3002 212.6 51.9002 210.6 52.5002L209.6 52.9002V70.3002H202.6Z" fill="#C62B17"/>
<path d="M235.8 50.2001H229.4V60.9001C229.4 61.9001 229.4 62.7001 229.5 63.1001C229.6 63.5001 229.7 63.9001 230.1 64.2001C230.4 64.5001 230.9 64.7001 231.6 64.7001L235.5 64.6001L235.8 70.2001C233.5 70.7001 231.7 71.0001 230.5 71.0001C227.4 71.0001 225.3 70.3001 224.1 68.9001C223 67.5001 222.4 64.9001 222.4 61.1001V50.2001H219.3V44.3001H222.4V37.1001H229.4V44.3001H235.8V50.2001Z" fill="#C62B17"/>
<path d="M205.9 88.8996C205.9 84.5996 209.4 81.0996 213.7 81.0996C218 81.0996 221.5 84.5996 221.5 88.8996C221.5 93.1996 218 96.6996 213.7 96.6996C209.3 96.6996 205.9 93.1996 205.9 88.8996Z" fill="#E22516" stroke="#E22516" stroke-width="1.0459" stroke-miterlimit="3.8637"/>
<path d="M152.7 86.2C152.7 83.6 152 81.5 149.3 81.5C146.9 81.5 145.6 82.8 144.7 83.5C144.3 82.3 143 81.5 141.7 81.5C139.4 81.5 138.1 82.8 137.2 83.5C136.9 82.1 136.6 81.5 136.2 81.5C136.1 81.5 135.9 81.5 135.8 81.6L133.5 82.3C133.3 82.4 133.2 82.5 133.2 82.6C133.2 83.3 133.8 83 133.8 87.2V96.2C133.8 96.5 133.9 96.6 134.2 96.6H137.1C137.5 96.6 137.5 96.5 137.5 96.2V85.9C137.9 85.5 138.9 84.7 140.1 84.7C141.2 84.7 141.3 86.1 141.3 87.2V96.3C141.3 96.6 141.4 96.7 141.7 96.7H144.6C145 96.7 145 96.6 145 96.3V85.9C145.4 85.5 146.4 84.7 147.6 84.7C148.7 84.7 148.8 86.1 148.8 87.2V96.3C148.8 96.6 148.9 96.7 149.2 96.7H152.1C152.5 96.7 152.5 96.6 152.5 96.3V86.2H152.7Z" fill="#1E181A"/>
<path fill-rule="evenodd" clip-rule="evenodd" d="M167.5 96.2C167.6 96.1 167.8 96.1 167.8 95.9C167.8 95.3 167 94.9 167 92V86.3C167 83.2 165.6 81.5 161.9 81.5C159.6 81.5 156.7 82.2 156.7 82.9C156.7 83 156.7 83.1 156.8 83.3L157.4 85.1C157.4 85.2 157.5 85.4 157.7 85.4C158.1 85.4 159.7 84.5 161.4 84.5C163.3 84.5 163.5 85.4 163.5 86.7V87.6C161.2 87.6 155.8 87.6 155.8 92.6C155.8 95.4 157.5 97.2 160.3 97.2C162.5 97.2 163.6 96 164.2 95.4C164.3 96.1 164.8 97.2 165.1 97.2C165.2 97.2 165.4 97.1 165.5 97.1L167.5 96.2ZM163.5 93.3C163.1 93.7 162.4 94.4 161.3 94.4C160.2 94.4 159.3 93.5 159.3 92.4C159.3 89.8 162.7 90 163.5 90V93.3Z" fill="#E22516"/>
<path fill-rule="evenodd" clip-rule="evenodd" d="M178.6 93.1998C178.2 93.5998 177.7 94.1998 176.4 94.1998C174.5 94.1998 173.9 92.7998 173.9 89.3998C173.9 86.0998 174.3 84.3998 176.6 84.3998C177.8 84.3998 178.4 84.7998 178.6 84.9998V93.1998ZM182.7 96.1998C182.8 96.0998 183 96.0998 183 95.8998C183 95.2998 182.5 94.8998 182.5 91.9998V75.8998C182.5 75.3998 182.4 75.2998 182.2 75.2998C182.1 75.2998 181.9 75.3998 181.8 75.3998L179.3 75.8998C178.9 75.9998 178.7 75.9998 178.7 76.3998V82.4998C178.2 82.1998 177.5 81.5998 175.9 81.5998C172.2 81.5998 170.2 84.3998 170.2 89.9998C170.2 94.4998 171.9 97.1998 175.3 97.1998C177.4 97.1998 178.7 95.8998 179.2 95.3998C179.3 96.0998 179.8 97.1998 180.1 97.1998C180.2 97.1998 180.4 97.0998 180.5 97.0998L182.7 96.1998Z" fill="#E22516"/>
<path d="M190.2 86.4C190.6 86 191.5 85 192.5 85C193.2 85 193.7 85.3 193.9 85.3C194 85.3 194.1 85.1 194.1 85L195 82.5C195 82.4 195.1 82.3 195.1 82.2C195.1 81.8 194.2 81.5 193.4 81.5C191.4 81.5 190.3 83.2 189.7 83.8C189.6 82.8 189 81.5 188.6 81.5C188.5 81.5 188.3 81.6 188.2 81.6L185.9 82.5C185.8 82.6 185.6 82.6 185.6 82.8C185.6 83.5 186.4 84 186.4 87.3V96.3C186.4 96.6 186.5 96.7 186.8 96.7H189.7C190.1 96.7 190.1 96.6 190.1 96.3V86.4H190.2Z" fill="#E22516"/>
<path fill-rule="evenodd" clip-rule="evenodd" d="M202.9 82.4998C202.9 82.1998 202.8 82.0998 202.5 82.0998H196.9C196.5 82.0998 196.5 82.1998 196.5 82.4998V84.3998C196.5 84.6998 196.6 84.7998 196.9 84.7998H199.2V96.2998C199.2 96.5998 199.3 96.6998 199.6 96.6998H202.5C202.9 96.6998 202.9 96.5998 202.9 96.2998V82.4998ZM203.4 77.6998C203.4 76.2998 202.3 75.2998 201 75.2998C199.6 75.2998 198.5 76.3998 198.5 77.6998C198.5 79.0998 199.6 80.1998 201 80.1998C202.3 80.0998 203.4 78.9998 203.4 77.6998Z" fill="#1E181A"/>
<path d="M215 90.5999H219.7C220.1 90.5999 220.2 90.4999 220.2 90.0999V88.0999C220.2 87.6999 220.1 87.5999 219.7 87.5999H215V82.8999C215 82.4999 214.9 82.3999 214.5 82.3999H212.5C212.1 82.3999 212 82.4999 212 82.8999V87.5999H207.3C206.9 87.5999 206.8 87.6999 206.8 88.0999V90.0999C206.8 90.4999 206.9 90.5999 207.3 90.5999H212V95.2999C212 95.6999 212.1 95.7999 212.5 95.7999H214.5C214.9 95.7999 215 95.6999 215 95.2999V90.5999Z" fill="white"/>
<path fill-rule="evenodd" clip-rule="evenodd" d="M231.5 93.1998C231.1 93.5998 230.6 94.1998 229.3 94.1998C227.4 94.1998 226.8 92.7998 226.8 89.3998C226.8 86.0998 227.2 84.3998 229.5 84.3998C230.7 84.3998 231.3 84.7998 231.5 84.9998V93.1998ZM235.5 96.1998C235.6 96.0998 235.8 96.0998 235.8 95.8998C235.8 95.2998 235.3 94.8998 235.3 91.9998V75.8998C235.3 75.3998 235.2 75.2998 235 75.2998C234.9 75.2998 234.7 75.3998 234.6 75.3998L232.1 75.8998C231.7 75.9998 231.5 75.9998 231.5 76.3998V82.4998C231 82.1998 230.3 81.5998 228.7 81.5998C225 81.5998 223 84.3998 223 89.9998C223 94.4998 224.7 97.1998 228.1 97.1998C230.2 97.1998 231.5 95.8998 232 95.3998C232.1 96.0998 232.6 97.1998 232.9 97.1998C233 97.1998 233.2 97.0998 233.3 97.0998L235.5 96.1998Z" fill="#1E181A"/>
</g>
<defs>
<clipPath id="clip0_13_27">
<rect width="235.8" height="64.2" fill="white" transform="translate(0 33)"/>
</clipPath>
</defs>
</svg>
