<svg width="188" height="102" viewBox="0 0 188 102" fill="none" xmlns="http://www.w3.org/2000/svg">
<path d="M35.3006 69.6251C35.3006 74.5875 37.435 79.2286 43.5022 79.2286C51.979 79.2286 60.074 67.6245 60.074 66.5388C60.074 65.7237 59.8 65.453 59.1022 65.453C58.4044 65.453 57.367 66.9586 55.6317 68.687C53.4329 70.8338 51.4881 72.4146 49.0786 72.4146C45.5064 72.4146 44.1542 70.5877 44.1542 67.5014C44.1542 65.1852 45.2102 60.6383 47.2392 56.3171C48.4018 53.9228 51.9492 47.3564 55.0615 47.3564C56.8786 47.3564 57.5764 48.4421 58.3375 49.5032C59.7753 51.5038 61.0222 52.4172 63.3474 52.4172C65.6727 52.4172 67.0039 51.084 67.0039 49.3555C67.0039 45.9493 61.7981 44.8867 58.4218 44.8867C45.147 44.9113 35.2969 58.3496 35.2969 69.6251H35.3006Z" fill="#97B5CF"/>
<path d="M21.5986 53.2534C21.5986 56.8087 25.9369 58.5603 29.4198 58.5603C36.543 58.5603 44.7445 53.4256 44.7445 47.5251C44.7445 44.4634 42.5458 41.3786 40.4065 38.3907C38.2672 35.4028 35.9678 32.5148 35.9678 29.9221C35.9678 28.4166 37.024 27.3309 38.9687 27.3309C41.1043 27.3309 42.1393 28.4166 43.5139 29.8237C44.6765 31.0093 45.1624 31.3306 46.5159 31.3306C48.4395 31.3306 49.6021 30.145 49.6021 28.515C49.6021 25.281 46.1316 24.1953 42.5619 24.1953C36.9843 24.1953 28.8645 29.1085 28.8645 34.071C28.8645 36.8851 30.8947 39.9454 33.008 43.2054C35.037 46.341 37.0661 49.7472 37.0661 53.1535C37.0661 53.9685 36.1985 55.7216 34.3814 55.7216C31.6979 55.7216 30.3234 54.3145 29.3516 53.0797C27.9981 51.3526 27.0473 49.9441 25.208 49.9441C22.9459 49.9441 21.5938 51.4265 21.5938 53.2534H21.5986Z" fill="#97B5CF"/>
<path d="M53.8984 30.0757C53.8984 32.8161 56.0328 33.9756 57.9565 33.9756C62.1843 33.9756 65.2917 30.3218 65.2917 26.4219C65.2917 23.6077 63.5564 22.1992 61.339 22.1992C57.1744 22.1992 53.9022 26.4957 53.9022 30.0757H53.8984Z" fill="#97B5CF"/>
<path d="M69.2656 30.0757C69.2656 32.8161 71.4012 33.9756 73.3237 33.9756C77.5515 33.9756 80.6589 30.3218 80.6589 26.4219C80.6589 23.6077 78.9236 22.1992 76.7062 22.1992C72.5416 22.1992 69.2693 26.4957 69.2693 30.0757H69.2656Z" fill="#97B5CF"/>
<path d="M5.41887 72.3886C4.67519 74.4153 4.2141 76.3131 4.38267 77.3018C4.61569 78.7827 5.82046 79.0534 8.04036 78.7827C14.1497 78.0661 26.6213 69.1792 26.2408 66.8587C26.1652 66.4345 25.8268 66.1465 25.4587 66.1913C24.9716 66.2405 24.2105 66.9151 22.6897 68.2904C20.4909 70.2403 17.7008 72.4132 15.9036 72.6332C14.8674 72.7577 14.5079 72.5348 14.4237 71.8935C14.3183 71.3 14.9318 70.165 15.269 69.3008L23.2599 49.7478C23.809 48.3407 24.2961 46.6123 24.0841 45.2298C23.7879 43.4275 22.6463 42.8847 20.0471 43.2031C14.5079 43.8937 2.52346 53.2018 2.88291 55.3979C2.94612 55.7193 3.45307 55.9176 3.83359 55.8669C4.31946 55.8177 4.74212 55.4225 6.70793 53.8402C8.16679 52.6546 10.704 50.3341 12.7119 50.1126C13.3032 50.0388 13.7258 50.4021 13.7903 50.7539C13.8324 51.0015 13.3676 52.3839 12.9016 53.6188L5.41887 72.3813V72.3886Z" fill="#97B5CF"/>
<path d="M14.875 29.875C14.875 32.6154 17.0106 33.7764 18.9343 33.7764C23.1621 33.7764 26.2695 30.1226 26.2695 26.2213C26.2695 23.4071 24.5342 22 22.3168 22C18.1732 22 14.88 26.3197 14.88 29.875H14.875Z" fill="#97B5CF"/>
<path d="M71.8236 65.9297H70.9062V74.1232H71.8236V65.9297Z" fill="#006289"/>
<path d="M74.1429 68.7213H73.3125V74.1064H74.1429V70.2413C74.5396 69.6767 74.8247 69.4596 75.1965 69.4596C75.7047 69.4596 76.0146 69.9807 76.0146 70.7624V74.1064H76.845V70.7769C76.845 69.3003 76.2129 68.6055 75.4072 68.6055C74.9003 68.6286 74.4317 68.9283 74.1429 69.4161H74.1182L74.1429 68.7213Z" fill="#006289"/>
<path d="M80.6635 69.071C80.2917 68.7974 79.8628 68.6469 79.424 68.6367C78.5812 68.6367 78.0358 69.1868 78.0358 70.1133C78.0358 71.5754 80.019 71.9518 80.019 72.719C80.019 73.1099 79.7339 73.3125 79.3993 73.3415C79.0522 73.3415 78.5688 73.1099 78.0234 72.6321V73.7902C78.5688 74.1521 78.9778 74.2824 79.486 74.2824C80.2917 74.2824 80.8742 73.6455 80.8742 72.7045C80.8742 72.1544 80.6139 71.7781 79.9198 71.1845C79.1761 70.6344 78.8911 70.3449 78.8911 70.0988C78.8911 69.8093 79.1018 69.6066 79.4488 69.6066C79.7587 69.6066 80.2049 69.7659 80.6759 70.1712L80.6635 69.071Z" fill="#006289"/>
<path d="M82.9914 67.6094L81.4297 69.5637V69.6939H82.161V72.5458C82.161 73.5157 82.6196 74.2395 83.5244 74.2395C83.8826 74.2163 84.2321 74.0918 84.5408 73.8776V72.8932C84.1937 73.1538 83.8962 73.2985 83.5864 73.2985C83.3385 73.2985 82.9914 73.1248 82.9914 72.4879V69.7229H84.3177V68.753H82.9914V67.6094Z" fill="#006289"/>
<path d="M86.1838 68.7243H85.3533V74.1094H86.1838V68.7243ZM86.2705 67.103C86.2433 66.7932 86.0115 66.563 85.745 66.5833C85.4785 66.6035 85.274 66.867 85.2814 67.1782C85.2889 67.4895 85.507 67.7385 85.7748 67.7399C86.0586 67.7168 86.2767 67.4359 86.2705 67.103Z" fill="#006289"/>
<path d="M88.5304 67.6094L86.9688 69.5637V69.6939H87.6999V72.5458C87.6999 73.5157 88.1585 74.2395 89.0634 74.2395C89.4216 74.2163 89.7712 74.0918 90.0798 73.8776V72.8932C89.7328 73.1538 89.4352 73.2985 89.1253 73.2985C88.8774 73.2985 88.5304 73.1248 88.5304 72.4879V69.7229H89.8566V68.753H88.5304V67.6094Z" fill="#006289"/>
<path d="M94.3976 74.1223V68.7227H93.5647V72.5733C93.292 73.0655 92.9449 73.3261 92.5607 73.3261C91.9781 73.3261 91.7054 72.9063 91.7054 72.139V68.7227H90.875V72.0811C90.875 73.4564 91.4699 74.2236 92.3376 74.2236C92.7466 74.2236 93.2424 73.9051 93.5895 73.4274V74.1223H94.3976Z" fill="#006289"/>
<path d="M96.7414 67.6094L95.1797 69.5637V69.6939H95.911V72.5458C95.911 73.5157 96.3696 74.2395 97.2744 74.2395C97.6326 74.2163 97.9821 74.0918 98.2908 73.8776V72.8932C97.9437 73.1538 97.6462 73.2985 97.3364 73.2985C97.0885 73.2985 96.7414 73.1248 96.7414 72.4879V69.7229H98.0677V68.753H96.729L96.7414 67.6094Z" fill="#006289"/>
<path d="M101.044 68.6367C99.7793 68.6367 98.8125 69.8382 98.8125 71.3872C98.8125 73.0375 99.7421 74.2535 101.044 74.2535C102.345 74.2535 103.324 73.0954 103.324 71.3872C103.337 69.7659 102.367 68.6367 101.044 68.6367ZM101.031 69.5777C101.862 69.5777 102.469 70.3304 102.469 71.3727C102.469 72.5453 101.911 73.2546 101.031 73.2546C100.213 73.2546 99.6677 72.5019 99.6677 71.3582C99.6677 70.3304 100.25 69.5777 101.031 69.5777Z" fill="#006289"/>
<path d="M110.349 65.8711H109.518V68.7663C109.238 68.6317 108.941 68.5593 108.638 68.5492C107.399 68.5492 106.531 69.6639 106.531 71.2273C106.531 72.9644 107.325 74.0501 108.576 74.0501H110.349V65.8711ZM109.506 73.1526H108.663C107.696 73.1526 107.374 72.3999 107.374 71.3865C107.374 70.2574 107.919 69.5191 108.725 69.5191C108.995 69.5162 109.262 69.5857 109.506 69.7218V73.1526Z" fill="#006289"/>
<path d="M115.314 72.5C114.83 72.9198 114.347 73.1515 113.839 73.1515C113.02 73.1515 112.55 72.6014 112.426 71.5301H115.388C115.388 69.5324 114.669 68.5625 113.553 68.5625C112.438 68.5625 111.57 69.6627 111.57 71.2985C111.57 72.7895 112.302 74.1793 113.615 74.1793C114.224 74.2068 114.821 73.9809 115.301 73.5423L115.314 72.5ZM112.438 70.8208C112.562 69.9667 112.934 69.489 113.578 69.489C114.173 69.489 114.533 70.0101 114.57 70.8208H112.438Z" fill="#006289"/>
<path d="M122.668 66.333C122.259 65.9638 121.76 65.7611 121.243 65.7539C120.065 65.7539 119.297 66.608 119.297 67.9398C119.297 70.1836 122.061 70.3718 122.061 72.0655C122.061 72.5143 121.726 73.0933 121.007 73.0933C120.388 73.0933 119.78 72.6735 119.309 71.9063V73.4118C119.803 73.9141 120.44 74.1834 121.094 74.1646C122.135 74.1646 122.879 73.2236 122.879 71.9352C122.879 69.3295 120.115 69.344 120.115 67.7806C120.115 67.2015 120.536 66.8107 121.131 66.8107C121.565 66.8107 122.086 66.9989 122.643 67.6648L122.668 66.333Z" fill="#006289"/>
<path d="M127.372 73.108C127.25 73.2427 127.101 73.3425 126.939 73.3975C126.827 73.3975 126.778 73.3252 126.778 73.1225V70.3431C126.778 69.1126 126.108 68.5625 125.253 68.5625C124.646 68.5625 124.187 68.7941 123.852 69.2863V70.4589C124.249 69.8364 124.72 69.5614 125.179 69.5614C125.687 69.5614 125.947 69.8364 125.947 70.5168V70.8063L125.203 71.1393C124.534 71.4577 123.766 71.7762 123.766 72.8475C123.766 73.5423 124.175 74.1648 124.807 74.1648C125.232 74.1518 125.638 73.9563 125.947 73.6147C126.021 74.0055 126.22 74.1648 126.579 74.1648C126.84 74.1648 127.001 74.0635 127.397 73.745L127.372 73.108ZM125.935 72.9633C125.754 73.2209 125.488 73.3773 125.203 73.3975C124.856 73.3975 124.608 73.0791 124.608 72.6448C124.608 72.0078 125.228 71.6894 125.935 71.3854V72.9633Z" fill="#006289"/>
<path d="M129.252 65.8711H128.422V74.0501H129.252V65.8711Z" fill="#006289"/>
<path d="M134.264 74.0481V68.6629H133.433V72.5136C133.161 73.0058 132.814 73.2663 132.429 73.2663C131.847 73.2663 131.574 72.8465 131.574 72.0793V68.6484H130.75V72.0142C130.75 73.3894 131.345 74.1566 132.213 74.1566C132.622 74.1566 133.117 73.8381 133.464 73.3604V74.0553L134.264 74.0481Z" fill="#006289"/>
<path d="M139.382 65.8711H138.557V68.7663C138.277 68.6317 137.98 68.5593 137.677 68.5492C136.438 68.5492 135.57 69.6639 135.57 71.2273C135.57 72.9644 136.364 74.0501 137.615 74.0501H139.388V65.8711H139.382ZM138.551 73.1526H137.708C136.742 73.1526 136.419 72.3999 136.419 71.3865C136.419 70.2574 136.965 69.5191 137.77 69.5191C138.041 69.5162 138.307 69.5857 138.551 69.7218V73.1526Z" fill="#006289"/>
<path d="M148.808 66.7663C147.94 66.3031 147.271 66.0859 146.601 66.0859C144.569 66.0859 143.094 67.9099 143.094 70.3998C143.094 72.1225 144.147 74.4821 146.552 74.4821C147.365 74.4966 148.167 74.252 148.87 73.7728V72.4989C148.151 73.1069 147.358 73.4254 146.639 73.4254C145.102 73.4254 144.048 72.1515 144.048 70.313C144.048 68.4745 145.139 67.1717 146.601 67.1717C147.345 67.1717 148.014 67.4322 148.808 68.0258V66.7663Z" fill="#006289"/>
<path d="M153.221 73.444C153.035 73.6177 152.874 73.7335 152.775 73.7335C152.675 73.7335 152.613 73.6611 152.613 73.4584V70.679C152.613 69.4485 151.944 68.8984 151.089 68.8984C150.482 68.8984 150.023 69.1301 149.688 69.6222V70.7948C150.085 70.1723 150.556 69.8973 151.015 69.8973C151.523 69.8973 151.783 70.1723 151.783 70.8527V71.1422L151.039 71.4752C150.37 71.7937 149.602 72.1121 149.602 73.1834C149.602 73.8782 150.011 74.5007 150.643 74.5007C151.068 74.4877 151.474 74.2923 151.783 73.9506C151.857 74.3415 152.056 74.5007 152.415 74.5007C152.675 74.5007 152.837 74.3994 153.233 74.0809L153.221 73.444ZM151.783 73.3137C151.602 73.5714 151.337 73.7277 151.052 73.748C150.705 73.748 150.457 73.4295 150.457 72.9952C150.457 72.3582 151.077 72.0398 151.783 71.7358V73.3209V73.3137Z" fill="#006289"/>
<path d="M154.086 69.0109V74.3961H154.916V71.5804C154.916 70.654 155.363 69.9302 155.945 69.9302C156.143 69.9302 156.478 70.1473 156.726 70.4513L157.172 69.5248C156.813 69.105 156.503 68.9023 156.168 68.9023C155.772 68.9023 155.363 69.3077 154.941 70.2486H154.916V69.0037L154.086 69.0182V69.0109Z" fill="#006289"/>
<path d="M158.687 66.2031H157.844V74.4111H158.687V66.2031Z" fill="#006289"/>
<path d="M161.934 68.9141C160.67 68.9141 159.703 70.1156 159.703 71.6645C159.703 73.3148 160.633 74.5308 161.934 74.5308C163.236 74.5308 164.215 73.3727 164.215 71.6645C164.202 70.0577 163.248 68.9141 161.934 68.9141ZM161.922 69.8695C162.752 69.8695 163.36 70.6223 163.36 71.6645C163.36 72.8371 162.802 73.5464 161.922 73.5464C161.104 73.5464 160.558 72.7937 160.558 71.6501C160.558 70.6223 161.129 69.8695 161.922 69.8695Z" fill="#006289"/>
<path d="M167.671 69.3483C167.301 69.0719 166.872 68.9227 166.432 68.9141C165.589 68.9141 165.044 69.4642 165.044 70.3906C165.044 71.8527 167.027 72.2291 167.027 72.9963C167.027 73.3872 166.742 73.5899 166.407 73.6188C166.06 73.6188 165.577 73.3872 165.031 72.924V74.0821C165.577 74.444 165.986 74.5743 166.494 74.5743C167.299 74.5743 167.882 73.9373 167.882 72.9963C167.882 72.4463 167.622 72.0699 166.928 71.4763C166.184 70.9263 165.899 70.6367 165.899 70.3906C165.899 70.1011 166.11 69.8984 166.457 69.8984C166.767 69.8984 167.213 70.0577 167.684 70.463L167.671 69.3483Z" fill="#006289"/>
<path d="M171.066 66.2031H170.148V74.4111H171.066V66.2031Z" fill="#006289"/>
<path d="M173.495 66.2031H172.578V74.4111H173.495V66.2031Z" fill="#006289"/>
<path d="M175.914 66.2031H174.984V74.4111H175.914V66.2031Z" fill="#006289"/>
</svg>
