<svg width="233" height="108" viewBox="0 0 233 108" fill="none" xmlns="http://www.w3.org/2000/svg">
<g clip-path="url(#clip0_2_76)">
<path d="M11.9265 80.6329C14.5869 80.6329 16.7436 68.9325 16.7436 54.4993C16.7436 40.0661 14.5869 28.3657 11.9265 28.3657C9.26606 28.3657 7.10938 40.0661 7.10938 54.4993C7.10938 68.9325 9.26606 80.6329 11.9265 80.6329Z" fill="black"/>
<path d="M2.14737 66.1603C3.33334 66.1603 4.29475 60.9411 4.29475 54.503C4.29475 48.0649 3.33334 42.8457 2.14737 42.8457C0.96141 42.8457 0 48.0649 0 54.503C0 60.9411 0.96141 66.1603 2.14737 66.1603Z" fill="black"/>
<path d="M23.9694 88.303C26.6298 88.303 28.7865 73.1689 28.7865 54.5001C28.7865 35.8313 26.6298 20.6973 23.9694 20.6973C21.309 20.6973 19.1523 35.8313 19.1523 54.5001C19.1523 73.1689 21.309 88.303 23.9694 88.303Z" fill="black"/>
<path d="M36.0007 90.5C38.6611 90.5 40.8178 74.3822 40.8178 54.5C40.8178 34.6177 38.6611 18.5 36.0007 18.5C33.3403 18.5 31.1836 34.6177 31.1836 54.5C31.1836 74.3822 33.3403 90.5 36.0007 90.5Z" fill="black"/>
<path d="M60.0808 80.6329C62.7412 80.6329 64.8978 68.9325 64.8978 54.4993C64.8978 40.0661 62.7412 28.3657 60.0808 28.3657C57.4204 28.3657 55.2637 40.0661 55.2637 54.4993C55.2637 68.9325 57.4204 80.6329 60.0808 80.6329Z" fill="black"/>
<path d="M69.8564 66.1603C71.0423 66.1603 72.0037 60.9411 72.0037 54.503C72.0037 48.0649 71.0423 42.8457 69.8564 42.8457C68.6704 42.8457 67.709 48.0649 67.709 54.503C67.709 60.9411 68.6704 66.1603 69.8564 66.1603Z" fill="black"/>
<path d="M48.0358 88.303C50.6962 88.303 52.8529 73.1689 52.8529 54.5001C52.8529 35.8313 50.6962 20.6973 48.0358 20.6973C45.3754 20.6973 43.2188 35.8313 43.2188 54.5001C43.2188 73.1689 45.3754 88.303 48.0358 88.303Z" fill="black"/>
<path d="M113.33 24.4966H117.558V42.4328H114.995V26.6721L109.218 42.4328H105.936L100.032 26.7519V42.4328H97.4688V24.4966H101.724L107.575 40.0285L113.324 24.4966H113.33Z" fill="black"/>
<path d="M119.275 36.0243C119.275 32.0509 121.967 29.3594 125.424 29.3594C128.881 29.3594 131.573 32.0509 131.573 36.0243C131.573 39.9977 128.881 42.6892 125.424 42.6892C121.967 42.6892 119.275 39.9977 119.275 36.0243ZM125.53 40.636C127.605 40.636 129.142 38.9711 129.142 36.0243C129.142 33.0775 127.605 31.4126 125.53 31.4126H125.323C123.249 31.4126 121.711 33.0775 121.711 36.0243C121.711 38.9711 123.249 40.636 125.323 40.636H125.53Z" fill="black"/>
<path d="M135.754 40.6402V42.4328H133.318V24.4966H135.754V31.4168C136.393 30.2626 137.935 29.3689 139.728 29.3689C142.93 29.3689 145.493 31.8051 145.493 36.0338C145.493 40.2626 143.185 42.6988 139.983 42.6988C138.19 42.6988 136.393 41.7998 135.754 40.6456V40.6402ZM139.573 40.6402C141.52 40.6402 143.057 39.103 143.057 36.0285C143.057 32.9541 141.52 31.4168 139.573 31.4168H139.366C137.547 31.4168 135.754 32.9541 135.754 36.0285C135.754 39.103 137.547 40.6402 139.366 40.6402H139.573Z" fill="black"/>
<path d="M147.205 27.3157V24.4966H149.896V27.3157H147.205ZM147.333 42.4381V29.6243H149.769V42.4381H147.333Z" fill="black"/>
<path d="M151.965 42.4391V24.5029H154.401V42.4391H151.965Z" fill="black"/>
<path d="M156.164 35.9977C156.164 31.5615 159.111 29.3594 162.137 29.3594C165.467 29.3594 167.568 31.6679 167.568 34.9977V36.4073H158.6C158.754 39.3275 160.627 40.636 162.185 40.636H162.392C163.648 40.636 164.855 39.9977 165.11 38.636H167.547C167.084 41.2264 164.855 42.6839 162.217 42.6839C159.042 42.6839 156.169 40.4817 156.169 35.9977H156.164ZM165.132 34.487C165.031 32.2583 163.696 31.4126 162.238 31.4126H162.031C160.696 31.4126 159.212 32.2051 158.749 34.487H165.132Z" fill="black"/>
<path d="M116.147 45.4033H118.811L114.455 63.3395H110.998L107.408 48.3501L103.817 63.3395H100.36L96.0039 45.4033H98.6687L102.179 60.547L105.844 45.4033H109.2L112.764 60.6746L116.147 45.4033Z" fill="black"/>
<path d="M118.023 56.9335C118.023 52.9601 120.715 50.2686 124.172 50.2686C127.629 50.2686 130.321 52.9601 130.321 56.9335C130.321 60.9069 127.629 63.5984 124.172 63.5984C120.715 63.5984 118.023 60.9069 118.023 56.9335ZM124.278 61.5452C126.353 61.5452 127.89 59.8803 127.89 56.9335C127.89 53.9866 126.353 52.3218 124.278 52.3218H124.071C121.997 52.3218 120.459 53.9866 120.459 56.9335C120.459 59.8803 121.997 61.5452 124.071 61.5452H124.278Z" fill="black"/>
<path d="M132.074 63.3351V50.5212H134.383V53.3404C134.893 51.4202 136.43 50.3936 138.101 50.3936H139.255V52.7499H138.228C135.92 52.7499 134.51 54.2872 134.51 56.851V63.3351H132.074Z" fill="black"/>
<path d="M141.098 63.3395V45.4033H143.534V63.3395H141.098Z" fill="black"/>
<path d="M145.34 56.9279C145.34 52.6992 147.904 50.263 151.106 50.263C152.898 50.263 154.435 51.1619 155.079 52.3109V45.3906H157.515V63.3268H155.079V61.5343C154.44 62.6885 152.643 63.5875 150.85 63.5875C147.648 63.5875 145.34 61.1513 145.34 56.9226V56.9279ZM151.467 61.5396C153.286 61.5396 155.079 60.0024 155.079 56.9279C155.079 53.8534 153.286 52.3162 151.467 52.3162H151.26C149.313 52.3162 147.776 53.8534 147.776 56.9279C147.776 60.0024 149.313 61.5396 151.26 61.5396H151.467Z" fill="black"/>
<path d="M159.609 54.3664C159.609 49.1111 162.811 45.1377 168.066 45.1377C171.912 45.1377 174.986 47.393 175.242 51.0313H172.678C172.423 48.8505 170.63 47.4409 168.194 47.4409H167.939C164.221 47.4409 162.173 50.5154 162.173 54.3611C162.173 58.2069 164.221 61.2814 167.939 61.2814H168.194C170.63 61.2814 172.423 59.8718 172.678 57.6909H175.242C174.986 61.3292 171.912 63.5846 168.066 63.5846C162.811 63.5846 159.609 59.6111 159.609 54.3611V54.3664Z" fill="black"/>
<path d="M176.693 59.8058C176.693 56.8856 179.283 56.0133 181.358 55.8324L184.895 55.5505V55.1409C184.895 53.3483 183.868 52.3218 182.23 52.3218H182.022C180.687 52.3218 179.538 52.9601 179.384 54.242H176.948C177.102 51.8856 179.23 50.2686 182.123 50.2686C185.533 50.2686 187.325 52.5239 187.325 55.1356V60.5186C187.325 61.2899 187.325 62.4388 187.453 63.3377H185.145C185.017 62.6994 185.017 61.4175 185.017 61.2899C184.506 62.4441 182.964 63.5984 180.916 63.5984C178.48 63.5984 176.688 61.9814 176.688 59.8058H176.693ZM181.405 61.5505C182.969 61.5505 184.889 60.2686 184.889 58.7313V57.4228L181.687 57.6782C180.198 57.8058 179.124 58.5239 179.124 59.7048C179.124 60.7579 179.996 61.5505 181.198 61.5505H181.405Z" fill="black"/>
<path d="M189.379 68.4654V50.5239H191.815V52.3164C192.453 51.1622 194.251 50.2686 196.043 50.2686C199.245 50.2686 201.554 52.7047 201.554 56.9335C201.554 61.1622 198.99 63.5984 195.788 63.5984C193.996 63.5984 192.459 62.6994 191.815 61.5452V68.4654H189.379ZM195.634 61.5452C197.581 61.5452 199.118 60.0079 199.118 56.9335C199.118 53.859 197.581 52.3218 195.634 52.3218H195.426C193.607 52.3218 191.815 53.859 191.815 56.9335C191.815 60.0079 193.607 61.5452 195.426 61.5452H195.634Z" fill="black"/>
<path d="M203.264 48.2225V45.4033H205.955V48.2225H203.264ZM203.391 63.3449V50.531H205.827V63.3449H203.391Z" fill="black"/>
<path d="M213.24 63.3378C211.447 63.3378 210.421 62.3112 210.421 60.5187V52.625H207.602V50.5239H210.421V46.375H212.857V50.5239H215.931V52.625H212.857V60.1357C212.857 60.907 213.112 61.1623 213.883 61.1623H216.319V63.3431H213.245L213.24 63.3378Z" fill="black"/>
<path d="M217.699 59.8058C217.699 56.8856 220.289 56.0133 222.363 55.8324L225.9 55.5505V55.1409C225.9 53.3483 224.874 52.3218 223.236 52.3218H223.028C221.693 52.3218 220.544 52.9601 220.39 54.242H217.954C218.108 51.8856 220.236 50.2686 223.129 50.2686C226.539 50.2686 228.331 52.5239 228.331 55.1356V60.5186C228.331 61.2899 228.331 62.4388 228.459 63.3377H226.15C226.023 62.6994 226.023 61.4175 226.023 61.2899C225.512 62.4441 223.97 63.5984 221.922 63.5984C219.486 63.5984 217.693 61.9814 217.693 59.8058H217.699ZM222.411 61.5505C223.975 61.5505 225.895 60.2686 225.895 58.7313V57.4228L222.693 57.6782C221.204 57.8058 220.129 58.5239 220.129 59.7048C220.129 60.7579 221.002 61.5505 222.204 61.5505H222.411Z" fill="black"/>
<path d="M230.252 63.3395V45.4033H232.688V63.3395H230.252Z" fill="black"/>
<path d="M98.1016 84.236V66.2998H106.58C109.399 66.2998 111.707 68.0924 111.707 71.0392C111.707 73.0924 110.479 74.4966 108.787 75.1403C110.814 75.4754 112.096 77.0392 112.096 79.369C112.096 82.3424 109.66 84.236 106.841 84.236H98.1069H98.1016ZM100.665 73.986H106.197C107.989 73.986 109.144 72.9594 109.144 71.2945C109.144 69.6296 107.989 68.603 106.197 68.603H100.665V73.986ZM100.665 81.9275H106.325C108.245 81.9275 109.527 80.9009 109.527 79.1084C109.527 77.3158 108.245 76.2892 106.325 76.2892H100.665V81.9275Z" fill="black"/>
<path d="M113.65 80.6994C113.65 77.7791 116.24 76.9068 118.315 76.726L121.852 76.444V76.0345C121.852 74.2419 120.825 73.2153 119.187 73.2153H118.979C117.644 73.2153 116.495 73.8536 116.341 75.1355H113.905C114.059 72.7791 116.187 71.1621 119.08 71.1621C122.49 71.1621 124.282 73.4174 124.282 76.0291V81.4121C124.282 82.1834 124.282 83.3324 124.41 84.2313H122.102C121.974 83.593 121.974 82.3111 121.974 82.1834C121.463 83.3377 119.926 84.4919 117.873 84.4919C115.437 84.4919 113.645 82.8749 113.645 80.6994H113.65ZM118.368 82.4441C119.931 82.4441 121.852 81.1621 121.852 79.6249V78.3164L118.65 78.5717C117.166 78.6994 116.086 79.4174 116.086 80.5983C116.086 81.6515 116.958 82.4441 118.16 82.4441H118.368Z" fill="black"/>
<path d="M126.625 84.2355V71.4216H128.933V74.2408C129.444 72.3205 130.981 71.2939 132.651 71.2939H133.806V73.6503H132.779C130.471 73.6503 129.061 75.1876 129.061 77.7514V84.2355H126.625Z" fill="black"/>
<path d="M134.527 77.829C134.527 74.063 136.729 71.1641 140.676 71.1641C143.596 71.1641 145.67 72.8822 145.931 75.6481H143.495C143.266 74.2385 142.24 73.2119 140.777 73.2119H140.57C138.107 73.2119 136.958 75.3928 136.958 77.8237C136.958 80.2545 138.112 82.4354 140.57 82.4354H140.777C142.24 82.4354 143.261 81.4088 143.495 79.9992H145.931C145.676 82.7652 143.601 84.4833 140.676 84.4833C136.729 84.4833 134.527 81.5896 134.527 77.8183V77.829Z" fill="black"/>
<path d="M147.285 77.8024C147.285 73.3662 150.232 71.1641 153.258 71.1641C156.588 71.1641 158.689 73.4726 158.689 76.8024V78.212H149.721C149.875 81.1322 151.748 82.4407 153.311 82.4407H153.519C154.774 82.4407 155.982 81.8024 156.237 80.4407H158.673C158.21 83.0311 155.982 84.4886 153.343 84.4886C150.168 84.4886 147.296 82.2864 147.296 77.8024H147.285ZM156.253 76.2917C156.152 74.063 154.817 73.2173 153.359 73.2173H153.152C151.817 73.2173 150.333 74.0098 149.87 76.2917H156.253Z" fill="black"/>
<path d="M160.812 84.236V66.2998H163.249V84.236H160.812Z" fill="black"/>
<path d="M165.154 77.829C165.154 73.8556 167.846 71.1641 171.303 71.1641C174.76 71.1641 177.452 73.8556 177.452 77.829C177.452 81.8024 174.76 84.4939 171.303 84.4939C167.846 84.4939 165.154 81.8024 165.154 77.829ZM171.409 82.4407C173.484 82.4407 175.021 80.7758 175.021 77.829C175.021 74.8822 173.484 73.2173 171.409 73.2173H171.202C169.128 73.2173 167.59 74.8822 167.59 77.829C167.59 80.7758 169.128 82.4407 171.202 82.4407H171.409Z" fill="black"/>
<path d="M179.386 84.2333V71.4194H181.822V73.2119C182.588 72.0577 183.87 71.1641 185.923 71.1641C188.87 71.1641 190.535 72.9566 190.535 75.6481V84.2333H188.099V76.1588C188.099 74.3662 187.333 73.2119 185.508 73.2119H185.301C183.482 73.2119 181.817 74.6215 181.817 77.0577V84.2333H179.381H179.386Z" fill="black"/>
<path d="M192.222 80.6994C192.222 77.7791 194.812 76.9068 196.887 76.726L200.424 76.444V76.0345C200.424 74.2419 199.397 73.2153 197.759 73.2153H197.552C196.217 73.2153 195.068 73.8536 194.913 75.1355H192.477C192.632 72.7791 194.759 71.1621 197.653 71.1621C201.062 71.1621 202.855 73.4174 202.855 76.0291V81.4121C202.855 82.1834 202.855 83.3324 202.982 84.2313H200.674C200.546 83.593 200.546 82.3111 200.546 82.1834C200.036 83.3377 198.493 84.4919 196.445 84.4919C194.009 84.4919 192.217 82.8749 192.217 80.6994H192.222ZM196.935 82.4441C198.498 82.4441 200.418 81.1621 200.418 79.6249V78.3164L197.217 78.5717C195.727 78.6994 194.653 79.4174 194.653 80.5983C194.653 81.6515 195.525 82.4441 196.727 82.4441H196.935Z" fill="black"/>
</g>
<defs>
<clipPath id="clip0_2_76">
<rect width="233" height="73" fill="white" transform="translate(0 18)"/>
</clipPath>
</defs>
</svg>
