<svg width="155" height="41" viewBox="0 0 155 41" fill="none" xmlns="http://www.w3.org/2000/svg">
<path d="M64.63 0.919998H47.08V2.41H64.63V0.919998Z" fill="#005FD7"/>
<path d="M49.23 4.41H50.31L51.55 5.71001L51.71 5.92L51.75 14.69L51.71 23.46L51.55 23.67L50.31 24.97H49.23V26.4H62.65V24.97H61.63L60.27 23.95V14.7V5.44L61.63 4.42H62.65V2.99001H49.23V4.42V4.41ZM56.68 4.78999L57.16 4.41H58.56L58.64 4.50999V14.68V24.86L58.56 24.96H57.16L56.68 24.58V14.69V4.78999ZM53.63 4.41H54.78C54.91 4.56 55.07 4.72999 55.22 4.89999V14.69V24.49C55.07 24.66 54.91 24.83 54.78 24.98H53.63L53.14 24.63L53.18 14.71V14.7L53.14 4.78L53.63 4.42999V4.41Z" fill="#005FD7"/>
<path d="M17.47 2.45V1.78H26.16V2.45H25.24C24.27 2.45 23.53 2.85 23.01 3.66C22.76 4.03 22.63 4.9 22.63 6.27V16.23C22.63 18.69 22.39 20.6 21.9 21.96C21.41 23.32 20.45 24.48 19.02 25.45C17.59 26.42 15.64 26.91 13.18 26.91C10.5 26.91 8.46999 26.45 7.07999 25.52C5.68999 24.59 4.70999 23.34 4.12999 21.77C3.73999 20.7 3.54999 18.68 3.54999 15.72V6.12C3.54999 4.61 3.33999 3.61999 2.92999 3.14999C2.50999 2.67999 1.83999 2.44 0.90999 2.44H-0.0100098V1.77H10.6V2.44H9.65999C8.64999 2.44 7.91999 2.75999 7.48999 3.39999C7.18999 3.82999 7.03999 4.74 7.03999 6.12V16.82C7.03999 17.77 7.12999 18.87 7.29999 20.1C7.46999 21.33 7.78999 22.29 8.24999 22.98C8.70999 23.67 9.36999 24.24 10.23 24.68C11.09 25.13 12.15 25.35 13.41 25.35C15.01 25.35 16.45 25 17.72 24.3C18.99 23.6 19.85 22.7 20.32 21.61C20.79 20.52 21.02 18.67 21.02 16.06V6.12C21.02 4.59 20.85 3.63001 20.51 3.24001C20.04 2.71001 19.34 2.44 18.41 2.44H17.49L17.47 2.45Z" fill="#000100"/>
<path d="M47.81 19.54L48.41 19.67L46.31 26.33H27.3V25.66H28.22C29.26 25.66 30 25.32 30.45 24.65C30.7 24.26 30.83 23.37 30.83 21.97V6.13C30.83 4.6 30.66 3.64 30.32 3.25C29.85 2.72 29.15 2.45 28.22 2.45H27.3V1.78H38.42V2.45C37.12 2.44 36.2 2.56 35.68 2.81C35.16 3.06 34.8 3.38 34.6 3.77C34.4 4.16 34.31 5.07999 34.31 6.53999V21.96C34.31 22.96 34.41 23.65 34.6 24.03C34.74 24.28 34.97 24.47 35.27 24.59C35.57 24.71 36.51 24.77 38.09 24.77H39.88C41.76 24.77 43.08 24.63 43.84 24.35C44.6 24.07 45.29 23.58 45.92 22.87C46.55 22.16 47.18 21.05 47.8 19.53L47.81 19.54Z" fill="#000100"/>
<path d="M79.96 1.22V9.71001H79.29C79.07 8.08001 78.68 6.78001 78.12 5.82001C77.56 4.85001 76.76 4.09 75.72 3.52C74.68 2.95 73.61 2.67 72.5 2.67C71.24 2.67 70.21 3.05001 69.39 3.82001C68.57 4.59001 68.16 5.46 68.16 6.44C68.16 7.19 68.42 7.87 68.94 8.48C69.69 9.39 71.47 10.59 74.28 12.1C76.57 13.33 78.14 14.28 78.98 14.93C79.82 15.59 80.46 16.36 80.92 17.26C81.37 18.15 81.6 19.09 81.6 20.07C81.6 21.93 80.88 23.53 79.44 24.88C78 26.23 76.14 26.9 73.87 26.9C73.16 26.9 72.49 26.85 71.86 26.74C71.49 26.68 70.71 26.46 69.53 26.08C68.35 25.7 67.61 25.51 67.29 25.51C66.97 25.51 66.75 25.6 66.57 25.78C66.4 25.96 66.27 26.33 66.18 26.9H65.51V18.48H66.18C66.49 20.24 66.92 21.56 67.45 22.44C67.98 23.32 68.79 24.04 69.89 24.62C70.98 25.2 72.18 25.49 73.48 25.49C74.99 25.49 76.18 25.09 77.06 24.29C77.93 23.49 78.37 22.55 78.37 21.47C78.37 20.87 78.2 20.26 77.87 19.64C77.54 19.02 77.02 18.45 76.32 17.92C75.85 17.56 74.56 16.79 72.46 15.61C70.36 14.43 68.87 13.5 67.98 12.8C67.09 12.1 66.42 11.33 65.96 10.48C65.5 9.63 65.27 8.71 65.27 7.69C65.27 5.93 65.95 4.41 67.3 3.14C68.65 1.87 70.37 1.23 72.46 1.23C73.76 1.23 75.15 1.55 76.61 2.19C77.29 2.49 77.76 2.64 78.04 2.64C78.35 2.64 78.61 2.55 78.81 2.36C79.01 2.17 79.17 1.8 79.29 1.23H79.96V1.22Z" fill="#000100"/>
<path d="M100.58 1.22V9.71001H99.91C99.69 8.08001 99.3 6.78001 98.74 5.82001C98.18 4.85001 97.38 4.09 96.34 3.52C95.3 2.95 94.23 2.67 93.12 2.67C91.86 2.67 90.83 3.05001 90.01 3.82001C89.19 4.59001 88.78 5.46 88.78 6.44C88.78 7.19 89.04 7.87 89.56 8.48C90.31 9.39 92.09 10.59 94.9 12.1C97.19 13.33 98.76 14.28 99.6 14.93C100.44 15.59 101.08 16.36 101.54 17.26C101.99 18.15 102.22 19.09 102.22 20.07C102.22 21.93 101.5 23.53 100.06 24.88C98.62 26.23 96.76 26.9 94.49 26.9C93.78 26.9 93.11 26.85 92.48 26.74C92.11 26.68 91.33 26.46 90.15 26.08C88.97 25.7 88.23 25.51 87.91 25.51C87.59 25.51 87.37 25.6 87.19 25.78C87.02 25.96 86.89 26.33 86.8 26.9H86.13V18.48H86.8C87.11 20.24 87.54 21.56 88.07 22.44C88.6 23.32 89.41 24.04 90.51 24.62C91.6 25.2 92.8 25.49 94.1 25.49C95.61 25.49 96.8 25.09 97.68 24.29C98.55 23.49 98.99 22.55 98.99 21.47C98.99 20.87 98.82 20.26 98.49 19.64C98.16 19.02 97.64 18.45 96.94 17.92C96.47 17.56 95.18 16.79 93.08 15.61C90.98 14.43 89.49 13.5 88.6 12.8C87.71 12.1 87.04 11.33 86.58 10.48C86.12 9.63 85.89 8.71 85.89 7.69C85.89 5.93 86.57 4.41 87.92 3.14C89.27 1.87 90.99 1.23 93.08 1.23C94.38 1.23 95.77 1.55 97.23 2.19C97.91 2.49 98.38 2.64 98.66 2.64C98.97 2.64 99.23 2.55 99.43 2.36C99.63 2.17 99.79 1.8 99.91 1.23H100.58V1.22Z" fill="#000100"/>
<path d="M111.95 3.12V12.82H117.35C118.75 12.82 119.69 12.61 120.16 12.19C120.79 11.64 121.14 10.66 121.21 9.25999H121.88V17.81H121.21C121.04 16.61 120.87 15.85 120.7 15.51C120.48 15.09 120.13 14.76 119.63 14.51C119.13 14.27 118.37 14.15 117.35 14.15H111.95V22.24C111.95 23.33 112 23.99 112.09 24.22C112.19 24.46 112.36 24.64 112.6 24.78C112.84 24.92 113.3 24.99 113.98 24.99H118.14C119.53 24.99 120.54 24.89 121.16 24.7C121.78 24.51 122.39 24.13 122.97 23.56C123.72 22.81 124.48 21.68 125.27 20.18H125.99L123.87 26.34H104.95V25.67H105.82C106.4 25.67 106.95 25.53 107.47 25.25C107.86 25.06 108.12 24.77 108.26 24.38C108.4 23.99 108.47 23.2 108.47 22.01V6.06C108.47 4.5 108.31 3.53999 108 3.17999C107.57 2.69999 106.84 2.46001 105.83 2.46001H104.96V1.78999H123.88L124.15 7.17H123.44C123.19 5.88 122.91 4.98999 122.6 4.50999C122.29 4.02999 121.84 3.66 121.23 3.41C120.75 3.23 119.9 3.14 118.68 3.14H111.95V3.12Z" fill="#000100"/>
<path d="M143.85 1.22V9.71001H143.18C142.96 8.08001 142.57 6.78001 142.01 5.82001C141.45 4.85001 140.65 4.09 139.61 3.52C138.57 2.95 137.5 2.67 136.39 2.67C135.13 2.67 134.1 3.05001 133.28 3.82001C132.46 4.59001 132.05 5.46 132.05 6.44C132.05 7.19 132.31 7.87 132.83 8.48C133.58 9.39 135.36 10.59 138.17 12.1C140.46 13.33 142.03 14.28 142.87 14.93C143.71 15.59 144.35 16.36 144.81 17.26C145.26 18.15 145.49 19.09 145.49 20.07C145.49 21.93 144.77 23.53 143.33 24.88C141.89 26.23 140.03 26.9 137.76 26.9C137.05 26.9 136.38 26.85 135.75 26.74C135.38 26.68 134.6 26.46 133.42 26.08C132.24 25.7 131.5 25.51 131.18 25.51C130.86 25.51 130.64 25.6 130.46 25.78C130.29 25.96 130.16 26.33 130.07 26.9H129.4V18.48H130.07C130.38 20.24 130.81 21.56 131.34 22.44C131.87 23.32 132.68 24.04 133.78 24.62C134.87 25.2 136.07 25.49 137.37 25.49C138.88 25.49 140.07 25.09 140.95 24.29C141.82 23.49 142.26 22.55 142.26 21.47C142.26 20.87 142.09 20.26 141.76 19.64C141.43 19.02 140.91 18.45 140.21 17.92C139.74 17.56 138.45 16.79 136.35 15.61C134.25 14.43 132.76 13.5 131.87 12.8C130.98 12.1 130.31 11.33 129.85 10.48C129.39 9.63 129.16 8.71 129.16 7.69C129.16 5.93 129.84 4.41 131.19 3.14C132.54 1.87 134.26 1.23 136.35 1.23C137.65 1.23 139.04 1.55 140.5 2.19C141.18 2.49 141.65 2.64 141.93 2.64C142.24 2.64 142.5 2.55 142.7 2.36C142.9 2.17 143.06 1.8 143.18 1.23H143.85V1.22Z" fill="#000100"/>
<path d="M148.53 18.95C149.18 18.58 149.41 17.74 149.04 17.09L145.71 11.27C145.34 10.62 144.5 10.39 143.85 10.76L141.86 11.9C141.81 11.93 141.76 11.97 141.71 12C141.46 12.1 141.33 12.38 141.25 12.66C141.22 12.74 141.21 12.82 141.2 12.9C141.2 12.93 141.19 12.96 141.18 12.99C141.14 13.14 141.06 13.35 140.95 13.6C140.42 14.76 139.58 15.43 137.69 16.72C136.74 17.37 135.87 17.94 135.11 18.43C134.49 18.79 134.27 19.58 134.63 20.2L135.65 21.99C135.83 22.3 136.11 22.51 136.43 22.6C136.94 22.74 137.34 22.52 137.41 22.47C138.49 21.85 139.42 21.4 140.12 21.08C142.61 19.96 143.64 19.9 144.4 19.97C144.77 20.01 145.07 20.07 145.26 20.12C145.3 20.13 145.33 20.15 145.37 20.16C145.4 20.17 145.43 20.18 145.45 20.19C145.45 20.19 145.46 20.19 145.47 20.19C145.49 20.19 145.5 20.2 145.52 20.2C145.79 20.28 146.07 20.31 146.27 20.18C146.36 20.15 146.46 20.11 146.54 20.06L148.53 18.92V18.95Z" fill="white" stroke="#005FD7" stroke-miterlimit="10"/>
<mask id="path-10-inside-1_1001_45" fill="white">
<path d="M146.41 18.77L142.96 12.75C142.96 12.75 143.01 12.47 143.25 12.34C143.49 12.21 143.72 12.29 143.75 12.3L147.2 18.32C147.2 18.32 147.18 18.62 146.93 18.76C146.68 18.9 146.43 18.78 146.41 18.76V18.77Z"/>
</mask>
<path d="M146.41 18.77L142.96 12.75C142.96 12.75 143.01 12.47 143.25 12.34C143.49 12.21 143.72 12.29 143.75 12.3L147.2 18.32C147.2 18.32 147.18 18.62 146.93 18.76C146.68 18.9 146.43 18.78 146.41 18.76V18.77Z" fill="#2E5FAA"/>
<path d="M146.41 18.77L145.542 19.2672L147.41 22.5261V18.77H146.41ZM142.96 12.75L141.976 12.5742L141.912 12.9319L142.092 13.2472L142.96 12.75ZM143.75 12.3L144.618 11.8028L144.428 11.4719L144.066 11.3513L143.75 12.3ZM147.2 18.32L148.198 18.3865L148.218 18.085L148.068 17.8228L147.2 18.32ZM146.41 18.76L147.117 18.0529L145.41 16.3458V18.76H146.41ZM146.41 18.77L147.278 18.2728L143.828 12.2528L142.96 12.75L142.092 13.2472L145.542 19.2672L146.41 18.77ZM142.96 12.75C143.944 12.9258 143.944 12.9261 143.944 12.9265C143.944 12.9266 143.944 12.927 143.944 12.9272C143.944 12.9277 143.944 12.9281 143.944 12.9286C143.944 12.9296 143.944 12.9305 143.943 12.9314C143.943 12.9332 143.943 12.935 143.942 12.9367C143.942 12.9402 143.941 12.9435 143.94 12.9467C143.939 12.9529 143.938 12.9586 143.937 12.9638C143.934 12.974 143.932 12.9826 143.93 12.9901C143.926 13.0039 143.92 13.0188 143.912 13.0357C143.899 13.0618 143.849 13.1527 143.726 13.2193L143.25 12.34L142.774 11.4607C142.411 11.6573 142.216 11.9532 142.118 12.1518C142.067 12.2549 142.034 12.348 142.013 12.4183C142.003 12.4541 141.995 12.4856 141.989 12.5116C141.985 12.5247 141.983 12.5365 141.981 12.547C141.98 12.5522 141.979 12.5571 141.978 12.5616C141.977 12.5639 141.977 12.5661 141.977 12.5682C141.976 12.5692 141.976 12.5703 141.976 12.5713C141.976 12.5718 141.976 12.5723 141.976 12.5728C141.976 12.573 141.976 12.5734 141.976 12.5735C141.976 12.5739 141.976 12.5742 142.96 12.75ZM143.25 12.34L143.726 13.2193C143.646 13.2626 143.57 13.2685 143.524 13.266C143.502 13.2648 143.482 13.2614 143.466 13.2577C143.448 13.2535 143.431 13.2478 143.434 13.2487L143.75 12.3L144.066 11.3513C144.069 11.3521 144.059 11.349 144.052 11.3465C144.042 11.3434 144.031 11.3398 144.017 11.3357C143.99 11.3277 143.958 11.3186 143.92 11.3098C143.845 11.2923 143.747 11.2752 143.633 11.269C143.405 11.2565 143.094 11.2874 142.774 11.4607L143.25 12.34ZM143.75 12.3L142.882 12.7972L146.332 18.8172L147.2 18.32L148.068 17.8228L144.618 11.8028L143.75 12.3ZM147.2 18.32C146.202 18.2535 146.202 18.2531 146.202 18.2527C146.202 18.2526 146.202 18.2522 146.202 18.2519C146.202 18.2514 146.202 18.2509 146.202 18.2504C146.203 18.2494 146.203 18.2484 146.203 18.2474C146.203 18.2454 146.203 18.2435 146.203 18.2416C146.203 18.2378 146.204 18.2342 146.204 18.2308C146.205 18.2239 146.205 18.2177 146.206 18.2119C146.207 18.2006 146.209 18.1906 146.211 18.1817C146.214 18.1653 146.219 18.1457 146.228 18.1226C146.244 18.0823 146.299 17.9672 146.441 17.8875L146.93 18.76L147.419 19.6325C147.811 19.4127 148.002 19.0777 148.09 18.8524C148.135 18.7368 148.161 18.6335 148.175 18.5564C148.183 18.5172 148.188 18.4827 148.191 18.4544C148.193 18.4402 148.194 18.4273 148.195 18.416C148.196 18.4104 148.196 18.4051 148.197 18.4001C148.197 18.3977 148.197 18.3953 148.197 18.3931C148.197 18.3919 148.198 18.3908 148.198 18.3897C148.198 18.3892 148.198 18.3886 148.198 18.3881C148.198 18.3879 148.198 18.3875 148.198 18.3873C148.198 18.3869 148.198 18.3865 147.2 18.32ZM146.93 18.76L146.441 17.8875C146.559 17.8217 146.673 17.8219 146.738 17.8319C146.769 17.8368 146.8 17.8453 146.831 17.8577C146.846 17.8638 146.869 17.8736 146.898 17.8889C146.912 17.8964 146.934 17.9088 146.961 17.9263C146.975 17.9355 147.043 17.9791 147.117 18.0529L146.41 18.76L145.703 19.4671C145.822 19.5858 145.949 19.6494 145.958 19.654C146.005 19.6792 146.052 19.7006 146.098 19.7186C146.19 19.7547 146.302 19.7881 146.43 19.8081C146.687 19.8481 147.051 19.8383 147.419 19.6325L146.93 18.76ZM146.41 18.76H145.41V18.77H146.41H147.41V18.76H146.41Z" fill="#005FD7" mask="url(#path-10-inside-1_1001_45)"/>
<path d="M147.11 9.11C147.78 9.37 149.58 10.18 150.9 12.16C152.35 14.35 152.28 16.56 152.22 17.24" stroke="#005FD7" stroke-miterlimit="10"/>
<path d="M147.53 7.09C148.24 7.32 150.89 8.25 152.66 11.05C154.45 13.87 154.13 16.69 154.03 17.43" stroke="#005FD7" stroke-miterlimit="10"/>
<path d="M134.5 22.09C132.92 22.67 131.72 24.75 132.01 26.23C132.08 26.41 132.14 26.47 132.29 26.5C132.66 26.58 133.05 26.5 133.59 26.41C137.48 25.27 141.19 25.84 142.05 30.45C143.08 35.42 138.75 40.35 133.79 40.62C131.39 40.76 129.26 39.88 127.22 38.99C124 37.49 118.37 34.77 116.47 34.11C110.47 31.88 104.16 30.02 97.75 29.85C91.29 29.62 84.81 31.1 78.28 32.46C70.59 34.05 54.85 37.14 48.42 31.91C45.12 28.86 46.22 24.44 51.12 24.74L51.1 25.14C46.97 25.11 45.96 28.54 49.04 31.19C55.34 35.73 70.45 31.97 77.76 30.21C92.92 26.06 102.37 25.34 117.66 30.32C118.52 30.59 121.54 31.73 123.61 32.69C126.81 33.99 130.43 36.54 133.65 36.75C137.27 36.79 140.64 32.22 138.41 28.99C136.48 27.03 133.05 29.55 131.01 27.56C130.26 26.77 130.49 25.49 130.85 24.7C131.45 23.2 132.81 21.94 134.39 21.69L134.5 22.07V22.09Z" fill="#005FD7"/>
</svg>
