<svg width="156" height="41" viewBox="0 0 156 41" fill="none" xmlns="http://www.w3.org/2000/svg">
<path d="M65.2 0.789993H47.65V2.28H65.2V0.789993Z" fill="#35DEFA"/>
<path d="M49.8 4.28H50.88L52.12 5.58L52.28 5.78999L52.32 14.56L52.28 23.33L52.12 23.54L50.88 24.84H49.8V26.27H63.22V24.84H62.2L60.84 23.82V14.57V5.31L62.2 4.28999H63.22V2.86H49.8V4.28999V4.28ZM57.25 4.66L57.73 4.28H59.13L59.21 4.38V14.55V24.73L59.13 24.83H57.73L57.25 24.45V14.56V4.66ZM54.19 4.28H55.34C55.47 4.43 55.63 4.6 55.78 4.77V14.56V24.36C55.63 24.53 55.47 24.7 55.34 24.85H54.19L53.7 24.5L53.74 14.58V14.57L53.7 4.64999L54.19 4.3V4.28Z" fill="#35DEFA"/>
<path d="M18.03 2.32001V1.64999H26.72V2.32001H25.8C24.83 2.32001 24.09 2.72 23.57 3.53C23.32 3.9 23.19 4.77 23.19 6.14V16.1C23.19 18.56 22.95 20.47 22.46 21.83C21.97 23.19 21.01 24.35 19.58 25.32C18.15 26.29 16.2 26.78 13.74 26.78C11.06 26.78 9.02998 26.32 7.63998 25.39C6.24998 24.46 5.26999 23.21 4.68999 21.64C4.29999 20.57 4.10999 18.55 4.10999 15.59V5.99001C4.10999 4.48001 3.89999 3.49 3.48999 3.02C3.06999 2.55 2.39999 2.31 1.46999 2.31H0.549988V1.64H11.16V2.31H10.22C9.20999 2.31 8.47999 2.63 8.04999 3.27C7.74999 3.7 7.59999 4.61001 7.59999 5.99001V16.69C7.59999 17.64 7.68999 18.74 7.85999 19.97C8.02999 21.2 8.34998 22.16 8.80998 22.85C9.26998 23.54 9.92998 24.11 10.79 24.55C11.65 25 12.71 25.22 13.97 25.22C15.57 25.22 17.01 24.87 18.28 24.17C19.55 23.47 20.41 22.57 20.88 21.48C21.35 20.39 21.58 18.54 21.58 15.93V5.99001C21.58 4.46001 21.41 3.5 21.07 3.11C20.6 2.58 19.9 2.31 18.97 2.31H18.05L18.03 2.32001Z" fill="white"/>
<path d="M48.38 19.41L48.98 19.54L46.88 26.2H27.87V25.53H28.79C29.83 25.53 30.57 25.19 31.02 24.52C31.27 24.13 31.4 23.24 31.4 21.84V6C31.4 4.47 31.23 3.51 30.89 3.12C30.42 2.59 29.72 2.32001 28.79 2.32001H27.87V1.64999H38.99V2.32001C37.69 2.31001 36.77 2.42999 36.25 2.67999C35.73 2.92999 35.37 3.25 35.17 3.64C34.97 4.03 34.88 4.95 34.88 6.41V21.83C34.88 22.83 34.98 23.52 35.17 23.9C35.31 24.15 35.54 24.34 35.84 24.46C36.14 24.58 37.08 24.64 38.66 24.64H40.45C42.33 24.64 43.65 24.5 44.41 24.22C45.17 23.94 45.86 23.45 46.49 22.74C47.12 22.03 47.75 20.92 48.37 19.4L48.38 19.41Z" fill="white"/>
<path d="M80.52 1.09V9.58H79.85C79.63 7.95 79.24 6.65 78.68 5.69C78.12 4.72 77.32 3.96 76.28 3.39C75.24 2.82 74.17 2.53999 73.06 2.53999C71.8 2.53999 70.77 2.92 69.95 3.69C69.13 4.46 68.72 5.33 68.72 6.31C68.72 7.06 68.98 7.74001 69.5 8.35001C70.25 9.26001 72.03 10.46 74.84 11.97C77.13 13.2 78.7 14.15 79.54 14.8C80.38 15.46 81.02 16.23 81.48 17.13C81.93 18.02 82.16 18.96 82.16 19.94C82.16 21.8 81.44 23.4 80 24.75C78.56 26.1 76.7 26.77 74.43 26.77C73.72 26.77 73.05 26.72 72.42 26.61C72.05 26.55 71.27 26.33 70.09 25.95C68.91 25.57 68.17 25.38 67.85 25.38C67.53 25.38 67.31 25.47 67.13 25.65C66.96 25.83 66.83 26.2 66.74 26.77H66.07V18.35H66.74C67.05 20.11 67.48 21.43 68.01 22.31C68.54 23.19 69.35 23.91 70.45 24.49C71.54 25.07 72.74 25.36 74.04 25.36C75.55 25.36 76.74 24.96 77.62 24.16C78.49 23.36 78.93 22.42 78.93 21.34C78.93 20.74 78.76 20.13 78.43 19.51C78.1 18.89 77.58 18.32 76.88 17.79C76.41 17.43 75.12 16.66 73.02 15.48C70.92 14.3 69.43 13.37 68.54 12.67C67.65 11.97 66.98 11.2 66.52 10.35C66.06 9.50001 65.83 8.58 65.83 7.56C65.83 5.8 66.51 4.27999 67.86 3.00999C69.21 1.73999 70.93 1.10001 73.02 1.10001C74.32 1.10001 75.71 1.42 77.17 2.06C77.85 2.36 78.32 2.50999 78.6 2.50999C78.91 2.50999 79.17 2.42 79.37 2.23C79.57 2.04 79.73 1.67001 79.85 1.10001H80.52V1.09Z" fill="white"/>
<path d="M101.14 1.09V9.58H100.47C100.25 7.95 99.86 6.65 99.3 5.69C98.74 4.72 97.94 3.96 96.9 3.39C95.86 2.82 94.79 2.53999 93.68 2.53999C92.42 2.53999 91.39 2.92 90.57 3.69C89.75 4.46 89.34 5.33 89.34 6.31C89.34 7.06 89.6 7.74001 90.12 8.35001C90.87 9.26001 92.65 10.46 95.46 11.97C97.75 13.2 99.32 14.15 100.16 14.8C101 15.46 101.64 16.23 102.1 17.13C102.55 18.02 102.78 18.96 102.78 19.94C102.78 21.8 102.06 23.4 100.62 24.75C99.18 26.1 97.32 26.77 95.05 26.77C94.34 26.77 93.67 26.72 93.04 26.61C92.67 26.55 91.89 26.33 90.71 25.95C89.53 25.57 88.79 25.38 88.47 25.38C88.15 25.38 87.93 25.47 87.75 25.65C87.58 25.83 87.45 26.2 87.36 26.77H86.69V18.35H87.36C87.67 20.11 88.1 21.43 88.63 22.31C89.16 23.19 89.97 23.91 91.07 24.49C92.16 25.07 93.36 25.36 94.66 25.36C96.17 25.36 97.36 24.96 98.24 24.16C99.11 23.36 99.55 22.42 99.55 21.34C99.55 20.74 99.38 20.13 99.05 19.51C98.72 18.89 98.2 18.32 97.5 17.79C97.03 17.43 95.74 16.66 93.64 15.48C91.54 14.3 90.05 13.37 89.16 12.67C88.27 11.97 87.6 11.2 87.14 10.35C86.68 9.50001 86.45 8.58 86.45 7.56C86.45 5.8 87.13 4.27999 88.48 3.00999C89.83 1.73999 91.55 1.10001 93.64 1.10001C94.94 1.10001 96.33 1.42 97.79 2.06C98.47 2.36 98.94 2.50999 99.22 2.50999C99.53 2.50999 99.79 2.42 99.99 2.23C100.19 2.04 100.35 1.67001 100.47 1.10001H101.14V1.09Z" fill="white"/>
<path d="M112.51 2.99001V12.69H117.91C119.31 12.69 120.25 12.48 120.72 12.06C121.35 11.51 121.7 10.53 121.77 9.13H122.44V17.68H121.77C121.6 16.48 121.43 15.72 121.26 15.38C121.04 14.96 120.69 14.63 120.19 14.38C119.69 14.14 118.93 14.02 117.91 14.02H112.51V22.11C112.51 23.2 112.56 23.86 112.65 24.09C112.75 24.33 112.92 24.51 113.16 24.65C113.4 24.79 113.86 24.86 114.54 24.86H118.7C120.09 24.86 121.1 24.76 121.72 24.57C122.34 24.38 122.95 24 123.53 23.43C124.28 22.68 125.04 21.55 125.83 20.05H126.55L124.43 26.21H105.51V25.54H106.38C106.96 25.54 107.51 25.4 108.03 25.12C108.42 24.93 108.68 24.64 108.82 24.25C108.96 23.86 109.03 23.07 109.03 21.88V5.92999C109.03 4.36999 108.87 3.41 108.56 3.05C108.13 2.57 107.4 2.33 106.39 2.33H105.52V1.66H124.44L124.71 7.03999H124C123.75 5.74999 123.47 4.86 123.16 4.38C122.85 3.9 122.4 3.53 121.79 3.28C121.31 3.1 120.46 3.00999 119.24 3.00999H112.51V2.99001Z" fill="white"/>
<path d="M144.41 1.09V9.58H143.74C143.52 7.95 143.13 6.65 142.57 5.69C142.01 4.72 141.21 3.96 140.17 3.39C139.13 2.82 138.06 2.53999 136.95 2.53999C135.69 2.53999 134.66 2.92 133.84 3.69C133.02 4.46 132.61 5.33 132.61 6.31C132.61 7.06 132.87 7.74001 133.39 8.35001C134.14 9.26001 135.92 10.46 138.73 11.97C141.02 13.2 142.59 14.15 143.43 14.8C144.27 15.46 144.91 16.23 145.37 17.13C145.82 18.02 146.05 18.96 146.05 19.94C146.05 21.8 145.33 23.4 143.89 24.75C142.45 26.1 140.59 26.77 138.32 26.77C137.61 26.77 136.94 26.72 136.31 26.61C135.94 26.55 135.16 26.33 133.98 25.95C132.8 25.57 132.06 25.38 131.74 25.38C131.42 25.38 131.2 25.47 131.02 25.65C130.85 25.83 130.72 26.2 130.63 26.77H129.96V18.35H130.63C130.94 20.11 131.37 21.43 131.9 22.31C132.43 23.19 133.24 23.91 134.34 24.49C135.43 25.07 136.63 25.36 137.93 25.36C139.44 25.36 140.63 24.96 141.51 24.16C142.38 23.36 142.82 22.42 142.82 21.34C142.82 20.74 142.65 20.13 142.32 19.51C141.99 18.89 141.47 18.32 140.77 17.79C140.3 17.43 139.01 16.66 136.91 15.48C134.81 14.3 133.32 13.37 132.43 12.67C131.54 11.97 130.87 11.2 130.41 10.35C129.95 9.50001 129.72 8.58 129.72 7.56C129.72 5.8 130.4 4.27999 131.75 3.00999C133.1 1.73999 134.82 1.10001 136.91 1.10001C138.21 1.10001 139.6 1.42 141.06 2.06C141.74 2.36 142.21 2.50999 142.49 2.50999C142.8 2.50999 143.06 2.42 143.26 2.23C143.46 2.04 143.62 1.67001 143.74 1.10001H144.41V1.09Z" fill="white"/>
<path d="M149.1 18.82C149.75 18.45 149.98 17.61 149.61 16.96L146.28 11.14C145.91 10.49 145.07 10.26 144.42 10.63L142.43 11.77C142.38 11.8 142.33 11.84 142.28 11.87C142.03 11.97 141.9 12.25 141.82 12.53C141.79 12.61 141.78 12.69 141.77 12.77C141.77 12.8 141.76 12.83 141.75 12.86C141.71 13.01 141.63 13.22 141.52 13.47C140.99 14.63 140.15 15.3 138.26 16.59C137.31 17.24 136.44 17.81 135.68 18.3C135.06 18.66 134.84 19.45 135.2 20.07L136.22 21.86C136.4 22.17 136.68 22.38 137 22.47C137.51 22.61 137.91 22.39 137.98 22.34C139.06 21.72 139.99 21.27 140.69 20.95C143.18 19.83 144.21 19.77 144.97 19.84C145.34 19.88 145.64 19.94 145.83 19.99C145.87 20 145.9 20.02 145.94 20.03C145.97 20.04 146 20.05 146.02 20.06C146.02 20.06 146.03 20.06 146.04 20.06C146.06 20.06 146.07 20.07 146.09 20.07C146.36 20.15 146.64 20.18 146.84 20.05C146.93 20.02 147.03 19.98 147.11 19.93L149.1 18.79V18.82Z" fill="white" stroke="#35DEFA" stroke-miterlimit="10"/>
<path d="M146.98 18.64L143.53 12.62C143.53 12.62 143.58 12.34 143.82 12.21C144.06 12.08 144.29 12.16 144.32 12.17L147.77 18.19C147.77 18.19 147.75 18.49 147.5 18.63C147.25 18.77 147 18.65 146.98 18.63V18.64Z" fill="#63C5E4"/>
<path d="M147.68 8.99001C148.35 9.25001 150.15 10.06 151.47 12.04C152.92 14.23 152.85 16.44 152.79 17.12" stroke="#35DEFA" stroke-miterlimit="10"/>
<path d="M148.1 6.97C148.81 7.2 151.46 8.12999 153.23 10.93C155.02 13.75 154.7 16.57 154.6 17.31" stroke="#35DEFA" stroke-miterlimit="10"/>
<path d="M135.06 21.96C133.48 22.54 132.28 24.62 132.57 26.1C132.64 26.28 132.7 26.34 132.85 26.37C133.22 26.45 133.61 26.37 134.15 26.28C138.04 25.14 141.75 25.71 142.61 30.32C143.64 35.29 139.31 40.22 134.35 40.49C131.95 40.63 129.82 39.75 127.78 38.86C124.56 37.36 118.93 34.64 117.03 33.98C111.03 31.75 104.72 29.89 98.31 29.72C91.85 29.49 85.37 30.97 78.84 32.33C71.15 33.92 55.41 37.01 48.98 31.78C45.68 28.73 46.78 24.31 51.68 24.61L51.66 25.01C47.53 24.98 46.52 28.41 49.6 31.06C55.9 35.6 71.01 31.84 78.32 30.08C93.48 25.93 102.93 25.21 118.22 30.19C119.08 30.46 122.1 31.6 124.17 32.56C127.37 33.86 130.99 36.41 134.21 36.62C137.83 36.66 141.2 32.09 138.97 28.86C137.04 26.9 133.61 29.42 131.57 27.43C130.82 26.64 131.05 25.36 131.41 24.57C132.01 23.07 133.37 21.81 134.95 21.56L135.06 21.94V21.96Z" fill="#35DEFA"/>
</svg>
